<?xml version="1.0" encoding="UTF-8" standalone="no"?>
<!-- Created with Inkscape (http://www.inkscape.org/) -->

<svg
   version="1.1"
   id="svg1"
   width="275"
   height="183"
   viewBox="0 0 275 183"
   sodipodi:docname="skola.svg"
   inkscape:version="1.4 (86a8ad7, 2024-10-11)"
   xmlns:inkscape="http://www.inkscape.org/namespaces/inkscape"
   xmlns:sodipodi="http://sodipodi.sourceforge.net/DTD/sodipodi-0.dtd"
   xmlns="http://www.w3.org/2000/svg"
   xmlns:svg="http://www.w3.org/2000/svg">
  <defs
     id="defs1" />
  <sodipodi:namedview
     id="namedview1"
     pagecolor="#ffffff"
     bordercolor="#000000"
     borderopacity="0.25"
     inkscape:showpageshadow="2"
     inkscape:pageopacity="0.0"
     inkscape:pagecheckerboard="0"
     inkscape:deskcolor="#d1d1d1"
     inkscape:zoom="4.4535519"
     inkscape:cx="137.53067"
     inkscape:cy="91.5"
     inkscape:window-width="1920"
     inkscape:window-height="1017"
     inkscape:window-x="-8"
     inkscape:window-y="-8"
     inkscape:window-maximized="1"
     inkscape:current-layer="svg1" />
  <g
     inkscape:groupmode="layer"
     id="layer1"
     inkscape:label="slanis">
    <path
       style="fill:none;stroke:#21dbc7;stroke-width:1.13386;stroke-linejoin:round;paint-order:fill markers stroke"
       d="m 125.06871,44.009816 c 0.96909,-0.09427 1.94937,0.0808 2.91902,0 0.4537,-0.03781 0.89475,-0.174263 1.34724,-0.22454 0.22317,-0.0248 0.45772,0.06169 0.67362,0 0.32184,-0.09196 0.57631,-0.357124 0.89816,-0.44908 0.92935,-0.265528 3.60079,0 4.71534,0 1.79631,0 3.59263,0 5.38895,0 0.93519,0 1.99648,0.131791 2.91902,0 0.45373,-0.06482 1.07681,-0.378369 1.57178,-0.449079 1.63648,-0.233783 -0.53444,0.44139 1.79632,-0.22454 0.16092,-0.04598 0.28399,-0.197026 0.44908,-0.22454 0.29531,-0.04922 0.61029,0.08225 0.89816,0 0.25948,-0.07414 0.43931,-0.31519 0.67362,-0.44908 0.99407,-0.568043 2.18599,-0.997238 3.14356,-1.571779 0.18153,-0.108918 0.27972,-0.322061 0.44908,-0.44908 0.70705,-0.53029 1.87794,-1.245167 2.69447,-1.571779 0.28653,-0.114611 0.6054,-0.126952 0.89816,-0.22454 1.36217,-0.454054 2.62545,-1.217712 4.04172,-1.571779 0.37025,-0.09256 0.77192,-0.0742 1.1227,-0.22454 0.19458,-0.08339 0.25973,-0.354405 0.44908,-0.44908 0.35283,-0.609422 0.92453,-0.05546 1.34724,-0.22454 0.25056,-0.100224 0.43225,-0.328393 0.67362,-0.449079 0.84679,-0.423397 1.82711,-0.518687 2.69448,-0.89816 0.55284,-0.241867 1.00857,-0.68154 1.57178,-0.898159 0.78844,-0.303246 1.67612,-0.290316 2.46994,-0.44908 1.05496,-0.210993 1.86448,-1.083604 2.91902,-1.347239 0.21783,-0.05446 0.45771,0.06169 0.67361,0 0.32185,-0.09196 0.58062,-0.343231 0.89816,-0.44908 0.14202,-0.04734 0.29939,0 0.44908,0 0.22454,-0.07485 0.45387,-0.136637 0.67362,-0.22454 0.52925,-0.211698 1.0735,-0.396796 1.57178,-0.67362 0.18506,-0.102809 0.27682,-0.326032 0.44908,-0.449079 0.88005,-0.628609 2.34278,-1.636365 3.3681,-2.020859 0.21024,-0.07884 0.47279,0.100417 0.67362,0 0.28402,-0.142012 0.38175,-0.548532 0.67362,-0.67362 0.27518,-0.117934 0.61784,0.105122 0.89816,0 0.3504,-0.131402 0.57323,-0.487948 0.89816,-0.673619 0.8828,-0.50446 2.6929,-1.154439 3.59264,-1.34724 0.43911,-0.09409 0.89948,0.03444 1.34724,0 2.44793,-0.188303 4.78383,-0.672429 7.18527,-1.122699 0.52018,-0.09753 1.06594,-0.0689 1.57178,-0.22454 0.47989,-0.147657 0.87862,-0.493381 1.34724,-0.67362 0.50857,-0.195604 1.06586,-0.246712 1.57178,-0.449079 0.62157,-0.248627 1.15407,-0.709264 1.79632,-0.89816 0.65022,-0.191242 1.36333,-0.06016 2.02086,-0.22454 0.8499,-0.212475 1.62584,-0.663688 2.46994,-0.898159 0.50993,-0.14165 1.0566,-0.103322 1.57178,-0.22454 0.76064,-0.178976 1.48073,-0.512639 2.24539,-0.67362 1.15357,-0.586809 2.41606,0.01078 3.59264,-0.22454 0.62707,-0.125414 1.18511,-0.485554 1.79632,-0.673619 3.31871,-1.02114 6.73864,-2.041022 10.1043,-2.919019 2.77901,-0.72496 5.67872,-1.271379 8.53251,-1.571779 0.82573,-0.08692 1.94118,0.173837 2.69448,0 0.42525,-0.09813 0.70867,-0.535609 1.1227,-0.673619 0.91208,-0.304028 1.94798,0.139597 2.91902,-0.22454 0.31341,-0.11753 0.58474,-0.331551 0.89816,-0.44908 0.77638,-0.291142 1.45119,-0.184346 2.2454,-0.44908 0.31754,-0.105849 0.57631,-0.357124 0.89816,-0.44908 0.2159,-0.06168 0.46723,0.08845 0.67361,0 0.34398,-0.147417 0.56344,-0.506257 0.89816,-0.673619 0.38847,-0.194234 1.99731,-0.381418 2.2454,-0.44908 2.1193,-0.57799 0.18802,-0.340375 2.02086,-0.67362 1.03391,-0.187983 2.37381,-0.23171 3.3681,-0.6736193 0.39881,-0.1772498 0.70867,-0.5356092 1.1227,-0.6736196 0.28402,-0.094674 0.61414,0.094674 0.89816,0 0.20083,-0.066945 0.25973,-0.3544054 0.44908,-0.4490798 0.13389,-0.066945 0.30707,0.047337 0.44908,0 0.50243,-0.167476 1.42276,-1.3480516 1.79632,-1.796319 0.2414,-0.2896857 1.14179,-1.1608858 1.34724,-1.5717791 0.10585,-0.2116982 0.10276,-0.4706632 0.22454,-0.6736197 0.60566,-1.0094439 0.22949,-0.00496 0.89816,-0.6736196 0.19082,-0.1908222 0.28716,-0.4577289 0.44908,-0.6736196 0.14798,-0.1973161 2.88637,-2.6863164 2.91901,-2.69447855 0.29045,-0.0726119 0.59878,0 0.89816,0 0.1497,0 0.32453,-0.0830349 0.44908,0 0.39387,0.26257934 0.23739,0.92384285 0.44908,1.34723925 0.0947,0.1893487 0.37046,0.2525229 0.44908,0.4490798 0.1593,0.3982506 0.0772,1.1296125 0.22454,1.5717791 0.26936,0.8080695 0.53327,1.6278044 0.67362,2.4699387 0.0154,0.092331 -0.11689,1.2303515 0,1.3472392 0.0529,0.052925 0.17162,-0.052924 0.22454,0 0.31755,0.3175474 -0.0738,0.9042698 0,1.3472393 0.0848,0.5088326 0.38793,1.0825529 0.44908,1.5717789 0.15339,1.227083 0.0138,2.847791 0.22454,4.041718 0.1358,0.769531 0.49465,1.484749 0.67362,2.245399 0.16631,0.706794 0.0309,2.562699 0.22454,3.143558 0.31994,0.959821 0.42911,1.940993 0.67362,2.919018 0.10892,0.435672 -0.0803,0.905404 0,1.34724 0.0975,0.536102 0.33491,1.038983 0.44908,1.571779 0.33268,1.552493 0.3498,3.160974 0.67362,4.715337 0.15938,0.764997 0.51264,1.480739 0.67362,2.245399 0.77225,3.668183 -0.20092,0.413513 0.22454,3.817178 0.83017,6.641375 0.0348,-1.685429 0.89816,2.919018 0.15235,0.812549 0.13325,1.648287 0.22454,2.469939 -0.0202,0.925958 0.33614,1.790961 0.44908,2.694479 0.13956,1.116502 0.10028,2.249788 0.22454,3.368098 0.0924,0.831692 0.37959,1.636018 0.44908,2.469938 0.21142,2.537014 0.31509,5.088509 0.44908,7.634356 0.0991,1.881985 0.53935,3.733697 0.67362,5.613497 0.064,0.895877 -0.029,1.796786 0,2.694479 0.21261,6.590809 0.22454,13.160703 0.22454,19.759509 0,5.187421 -0.0539,10.329026 -0.67362,15.493247 -0.62309,5.19238 -0.25436,0.67767 -0.89816,5.6135 -0.10693,0.81977 -0.14969,1.64663 -0.22454,2.46994 0,0.89816 0.1114,1.80325 0,2.69448 -0.21851,1.74807 -0.88467,3.41889 -1.1227,5.16442 -0.43754,3.20862 -0.55853,6.45824 -1.1227,9.65521 -1.24352,7.0466 0.42811,-3.09198 -1.1227,4.04172 -1.07241,1.56246 -0.14437,3.31478 -0.44908,4.93988 -0.11785,0.62853 -0.52982,1.1732 -0.67362,1.79631 -0.0842,0.36465 0.0569,0.75282 0,1.1227 -0.28075,1.8249 -0.73156,3.5564 -0.89816,5.38896 -0.0666,0.7323 0.19535,1.91309 0,2.69448 -0.16493,0.65972 -0.56169,0.90019 -0.67362,1.57178 -0.0984,0.59062 0.0497,1.19961 0,1.79632 -0.45624,5.47495 0.10507,-1.58831 -0.67362,2.69448 -0.095,0.52262 0.19795,2.49653 -0.22454,2.91901 -0.13054,0.13055 -0.36074,-0.44908 -0.67362,-0.44908 -1.20835,0 -2.65965,-0.27235 -3.81717,0 -2.12163,0.49921 -4.1825,1.22969 -6.28712,1.79632 -1.78794,0.48137 -3.6055,0.84953 -5.38896,1.34724 -1.43642,0.40087 -2.8172,0.99477 -4.26626,1.34724 -2.87328,0.69891 -5.8683,0.76949 -8.75705,1.34724 -1.91451,0.3829 -4.06181,1.29831 -6.06258,0.89816 -1.00298,-0.2006 -1.96369,-0.77531 -2.91902,-1.1227 -1.33461,-0.48531 -2.68149,-0.93917 -4.04171,-1.34724 -1.33928,-0.40178 -2.71941,-0.66815 -4.04172,-1.1227 -6.13992,-2.11059 -11.9938,-4.70536 -18.41227,-5.83803 -1.33491,-0.23557 -2.70348,-0.23324 -4.04172,-0.44908 -0.98584,-0.15901 -1.93298,-0.51586 -2.91902,-0.67362 -2.14651,-0.34345 -5.02156,-0.49501 -7.18527,-0.22454 -3.3408,0.4176 -1.31409,0.47705 -4.93988,1.34724 -0.29014,0.0696 -3.37182,0.49473 -4.26626,0.67362 -1.03251,0.2065 -0.741,0.31248 -1.79632,0.22454 -0.39876,-0.0332 -2.59635,-0.31228 -3.14356,-0.44908 -0.75809,-0.18953 -1.47354,-0.55175 -2.24539,-0.67362 -0.66538,-0.10506 -1.36169,0.13877 -2.02086,0 -0.78884,-0.16607 -1.48524,-0.62987 -2.2454,-0.89816 -0.51383,-0.18135 -1.06321,-0.25348 -1.57178,-0.44908 -3.40552,-1.30982 1.04785,0 -3.14356,-1.57178 -0.46782,-0.17543 -3.42759,-0.80826 -3.81718,-0.89816 -2.30316,-0.5315 -4.36207,-0.89816 -6.73619,-0.89816 -1.46967,0 -3.79388,-0.39843 -5.16442,0.22454 -0.38545,0.1752 -0.51946,0.70881 -0.89816,0.89816 -0.38561,0.1928 -1.77894,0 -2.2454,0 -1.58518,0 -3.13137,-0.0265 -4.71534,-0.22454 -0.71704,-0.0896 -1.52835,-0.35945 -2.2454,-0.44908 -1.03244,-0.12906 -2.10971,-0.0953 -3.14355,-0.22454 -3.58741,-0.44843 3.52186,-0.0347 -2.69448,-0.44908 -0.52277,-0.0349 -1.05683,0.0966 -1.57178,0 -0.6979,-0.13086 -1.34724,-0.44908 -2.02086,-0.67362 -1.79632,-0.29939 -3.58752,-0.63128 -5.38896,-0.89816 -0.62651,-0.0928 -1.68283,0.28129 -2.2454,0 -0.0947,-0.0473 -0.12074,-0.20378 -0.22454,-0.22454 -0.11514,-0.023 -2.29726,-0.31088 -2.46994,-0.22454 -0.48369,0.24185 -0.14235,1.32521 -0.22453,1.57178 -0.0529,0.15877 -0.37424,0.0749 -0.44908,0.22454 -0.41464,0.82928 0.42019,5.44673 0,6.28712 -0.30957,0.61912 -2.55893,0.22454 -3.14356,0.22454 -4.79019,0 -9.58037,0 -14.37056,0 -0.67361,0 -1.3581,-0.12051 -2.020854,0 -3.153293,0.57332 0.07778,0.42748 -3.368098,0.67362 -3.108604,0.22204 -6.315995,0 -9.430675,0 -2.230452,0 -4.737603,0.27789 -6.960736,0 -0.598773,-0.0748 -1.201097,-0.12534 -1.796319,-0.22454 -0.165085,-0.0275 -0.282405,-0.20939 -0.44908,-0.22454 -0.670853,-0.061 -1.355072,0.10242 -2.020859,0 -0.330832,-0.0509 -0.571406,-0.37647 -0.898159,-0.44908 -0.832505,-0.18501 -2.513318,-0.14684 -3.368099,-0.22454 -1.170752,-0.10644 -2.231955,-0.42115 -3.368098,-0.67362 -1.254923,-0.27888 -2.567378,-0.24078 -3.817178,-0.44908 -2.302455,-0.38375 -4.47948,-1.07029 -6.736196,-1.57178 -0.219193,-0.0487 -0.455784,0.0545 -0.67362,0 -0.773087,-0.19327 -1.454613,-0.76636 -2.245398,-0.89816 -0.294874,-0.0492 -2.797619,-0.32768 -2.919019,-0.44908 -0.05292,-0.0529 0.05293,-0.17162 0,-0.22454 -0.218213,-0.21822 -0.622139,-0.0865 -0.898159,-0.22454 -0.939602,-0.4698 -0.402129,-2.09129 0,-2.69448 0.281944,-0.42292 0.616215,-0.0262 0.898159,-0.44908 0.300382,-0.45057 0.98079,-0.9257 1.571779,-1.1227 0.464423,-0.15481 0.658278,-0.0697 1.1227,-0.22454 0.07101,-0.0237 0.299386,0 0.22454,0 -1.937475,0 -3.723561,-0.52017 -5.613497,-0.89816 -0.780654,-0.15613 -1.707578,0.21782 -2.469939,0 -0.321845,-0.0919 -0.569935,-0.38343 -0.898159,-0.44908 -0.626148,-0.12523 -7.481349,-0.16532 -8.307976,0 -0.646671,0.12934 -2.0663,0.44908 -2.694478,0.44908 -2.40604,0 -5.009856,0.24 -7.409816,0 -1.360283,-0.13603 -2.697634,-0.50561 -4.041718,-0.67362 -1.200589,-0.15007 -2.388949,-0.23023 -3.592638,-0.44908 -1.179761,-0.2145 -2.399927,-0.56519 -3.592638,-0.67362 -0.596314,-0.0542 -1.240372,0.22238 -1.796319,0 -0.250562,-0.10022 -0.417605,-0.36374 -0.67362,-0.44908 -0.431911,-0.14397 -0.905558,-0.11412 -1.347239,-0.22454 -0.493107,-0.12327 -1.078672,0.12328 -1.5717793,0 -0.3125468,-0.0781 -0.4191535,-2.03591 -0.4490797,-2.2454 -0.1842577,-1.2898 0,-2.73912 0,-4.04171 0,-2.00686 -0.1332972,-4.06312 0,-6.06258 0.060569,-0.90853 0.2282393,-1.81112 0.4490797,-2.69448 0.040591,-0.16236 0.1970257,-0.28399 0.2245399,-0.44908 0.098438,-0.59062 -0.098438,-1.20569 0,-1.79632 0.027514,-0.16508 0.1839484,-0.28671 0.2245394,-0.44908 0.227738,-0.91095 -0.2576601,-2.0172 0,-2.91902 0.09196,-0.32184 0.357124,-0.57631 0.44908,-0.89816 0.123372,-0.4318 -0.0557,-0.90162 0,-1.34723 0.386198,-3.08959 -0.0026,0.009 0.44908,-1.57178 1.195736,-4.18508 -0.320953,0.93114 0.22454,-1.79632 0.03282,-0.16412 0.178562,-0.28816 0.22454,-0.44908 0.145395,-0.50888 0.02798,-1.08039 0.22454,-1.57178 0.100224,-0.25056 0.374942,-0.41414 0.449079,-0.67362 0.08225,-0.28787 -0.07261,-0.60771 0,-0.89816 0.406038,-1.62415 0.787871,-1.48526 0.89816,-2.91902 0.02996,-0.38947 0.19488,-3.20706 0.22454,-3.59264 0.08945,-1.16285 -0.191877,-2.44137 0,-3.59264 0.02751,-0.16508 0.183948,-0.28671 0.22454,-0.44908 0.105692,-0.42276 -0.08557,-0.91941 0,-1.347234 0.310328,-1.551644 0.637967,-3.154185 0.898159,-4.715338 0.07383,-0.442969 -0.07383,-0.90427 0,-1.347239 0.03891,-0.233466 0.185629,-0.440154 0.22454,-0.67362 0.102736,-0.616418 -0.172052,-1.418675 0,-2.020859 0.290361,-1.016264 1.091076,-1.894365 1.347239,-2.919018 0.07261,-0.290448 -0.07261,-0.607712 0,-0.89816 0.05671,-0.226817 1.001557,-2.348795 1.1227,-2.469938 0.319142,-0.319142 3.442508,0.411612 3.817178,0.449079 1.111583,0.111159 2.256514,-0.111158 3.368098,0 0.37975,0.03798 0.742373,0.192847 1.122699,0.22454 3.048543,0.254046 6.1882,-0.197585 9.206135,-0.449079 1.271595,-0.105967 2.120308,-0.802176 3.368098,-0.89816 0.59701,-0.04592 1.200005,0.05421 1.796319,0 0.542654,-0.04933 1.032364,-0.37202 1.571779,-0.44908 0.88499,-0.126427 1.845434,-0.206495 2.694479,-0.449079 0.768118,-0.219463 1.492142,-0.647074 2.245399,-0.89816 0.965516,-0.321839 1.929292,-0.45368 2.919018,-0.67362 0.688103,-0.152911 1.329846,-0.535416 2.020859,-0.673619 0.146786,-0.02936 0.310093,0.05559 0.44908,0 0.250562,-0.100225 0.432246,-0.328393 0.673619,-0.44908 0.06694,-0.03347 0.149694,0 0.22454,0 0.22454,-0.07485 0.484271,-0.08253 0.67362,-0.22454 0.13389,-0.100417 0.106197,-0.330737 0.22454,-0.44908 0.07485,-0.07485 0.598773,-0.149693 0.673619,-0.224539 0.274634,-0.274634 0.332624,-0.642413 0.67362,-0.89816 0.215891,-0.161918 0.505037,-0.238352 0.67362,-0.44908 0.147856,-0.18482 0.11869,-0.461921 0.22454,-0.673619 0.181823,-0.363646 0.551171,-0.755354 0.673619,-1.1227 0.22454,-0.673619 -0.11227,-0.22454 0,-0.673619 0.149019,-0.596074 0.206923,-1.087466 0.44908,-1.571779 0.16562,-0.331241 0.125865,-4.786823 0,-5.164418 -0.05292,-0.158773 -0.207887,-0.282548 -0.22454,-0.449079 -0.12271,-1.227101 0.20371,-2.59492 0,-3.817178 -0.02751,-0.165085 -0.171615,-0.290306 -0.22454,-0.44908 -0.24409,-0.732271 -0.351488,-2.138284 -0.44908,-2.919018 -0.09103,-0.728262 0.143659,-1.527108 0,-2.245399 -0.364959,-1.8248 -0.224539,-3.731915 -0.224539,-5.613497 0,-0.843978 -0.273729,-4.753824 0,-5.164417 1.376044,-2.064067 6.536555,-1.39715 8.532515,-0.89816 1.049524,0.262381 4.875118,0.10116 5.838037,-0.44908 0.275708,-0.157547 0.409404,-0.497476 0.673619,-0.673619 2.437241,-1.624827 -0.588662,0.631141 1.1227,-0.22454 0.06695,-0.03347 -0.05293,-0.171615 0,-0.22454 0.05292,-0.05292 0.183022,0.06228 0.22454,0 0.448839,-0.67326 0.449079,-1.478499 0.449079,-2.245399 0,-2.23419 0.175974,-4.533371 -0.22454,-6.736196 -0.08144,-0.447931 -0.114119,-0.905558 -0.224539,-1.347239 -0.271073,-1.084291 -0.106706,0.01113 -0.44908,-0.67362 -0.402006,-0.804012 -0.202539,-1.659782 0,-2.469939 0.03631,-0.145223 -0.08701,-0.327269 0,-0.449079 0.279428,-0.3912 2.403853,-2.725832 2.919018,-2.919019 0.357345,-0.134004 0.76064,-0.103853 1.1227,-0.22454 0.942413,-0.314137 1.763862,-0.998258 2.694478,-1.347239 1.567307,-0.58774 3.145164,-1.192406 4.715338,-1.796319 1.384442,-0.532478 2.909864,-0.765928 4.266257,-1.347239 1.264544,-0.541948 2.949377,-1.201604 4.041718,-2.020859 0.484092,-0.363069 0.619918,-0.562972 1.122699,-0.89816 0.278508,-0.185671 0.689059,-0.187704 0.89816,-0.449079 0.140269,-0.175337 -0.08339,-0.46514 0,-0.67362 0.157245,-0.393114 0.519462,-0.708811 0.898159,-0.89816 0.13389,-0.06694 0.315191,0.06695 0.44908,0 0.284023,-0.142011 0.531608,-0.389596 0.67362,-0.673619 0.03347,-0.06695 -0.06694,-0.191068 0,-0.22454 0.607276,-0.303638 0.867947,-0.06565 1.347239,-0.44908 0.247963,-0.19837 0.419582,-0.483091 0.67362,-0.673619 0.0655,-0.04913 1.543893,-0.668043 1.571779,-0.67362 0.293573,-0.05871 0.602846,0.04922 0.898159,0 0.639945,-0.106657 1.514685,-1.038975 2.245395,-0.67362 0.3439,0.17195 0.1756,0.400134 0.44908,0.67362 0.11835,0.118343 0.35625,0.08529 0.44908,0.22454 0.17118,0.256771 0.0658,0.633537 0.22454,0.898159 0.10349,0.172477 0.6003,0.829404 0.67362,1.1227 0.11704,0.46813 0,1.086333 0,1.571779 0,1.684651 -0.39485,7.266622 0.44908,8.532515 0.0415,0.06228 0.1576,-0.03347 0.22454,0 0.92724,0.463619 1.35085,0.711645 2.46994,0.89816 0.52023,0.08671 1.7501,0.1651 2.2454,0 0.25602,-0.08534 0.43225,-0.328394 0.67362,-0.44908 0.36486,-0.182429 1.02982,0.09288 1.34724,-0.22454 0.63394,-0.633939 0.67362,-5.530403 0.67362,-6.960736 0,-0.253601 0.27274,-2.201315 0.44908,-2.245399 1.26386,-0.315965 2.75492,0.214466 4.04172,0 6.69245,-1.115408 -4.60471,0.272889 3.59263,-0.898159 0.96054,-0.137219 1.48197,0.164662 2.46994,0 5.23032,-0.87172 -2.43891,-0.103243 2.69448,-0.67362 1.31541,-0.146157 2.71432,0 4.04172,0 0.29939,0 0.59877,0 0.89816,0 0.14969,0 0.34323,-0.105849 0.44908,0 0.0748,0.07485 -0.19546,0.122763 -0.22454,0.22454 -0.12507,0.437757 -0.0647,0.920953 -0.22454,1.347239 -0.10433,0.2782 -1.52197,1.921236 -1.79632,2.469939 -0.45806,0.916117 -0.71717,1.972774 -1.1227,2.919018 -0.65054,1.517922 -1.36839,4.210888 -1.57178,5.838037 -0.0464,0.371343 0.0734,0.755734 0,1.122699 -0.11368,0.568419 -0.55992,1.787723 -0.67362,2.469939 -0.16898,1.013892 0.20149,2.136114 0,3.143558 -0.26663,1.33315 -0.22454,2.667607 -0.22454,4.041718"
       id="path2" />
    <path
       style="fill:none;stroke:#21dbc7;stroke-width:1.13386;stroke-linejoin:round;paint-order:fill markers stroke"
       d="m 16.840491,110.47362 c 4.507696,-0.33226 8.951237,-0.44908 13.472392,-0.44908 1.009743,0 1.931173,0.0577 2.919019,-0.22454 0.160923,-0.046 0.284968,-0.19172 0.44908,-0.22454 0.366965,-0.0734 0.823312,0.22454 1.122699,0 0.215891,-0.16192 0.233189,-0.5117 0.44908,-0.67362 0.20835,-0.15626 2.993982,-0.0998 3.368098,-0.22454 0.256015,-0.0853 0.414139,-0.37494 0.67362,-0.44908 0.287867,-0.0822 0.601782,0.0423 0.898159,0 0.870855,-0.12441 2.215008,-0.48791 3.143558,-0.67362 0.395235,-0.079 0.725122,-0.38282 1.1227,-0.44908 1.497055,-0.24951 0.837865,0.20375 2.469938,-0.44908 0.43873,-0.17549 1.151031,0.21038 1.571779,0 0.560464,-0.28023 1.132006,-0.63243 1.79632,-0.89816 0.138986,-0.0556 0.31519,0.067 0.449079,0 0.891224,-0.44561 -0.992393,-0.071 0.89816,-0.44908 0.366918,-0.0734 1.018838,0.1642 1.347239,0 0.804216,-0.40211 1.122699,-2.9128 1.122699,-3.81718 0,-0.65645 -0.09265,-1.3723 0,-2.020854 0.154383,-1.080677 0.383689,-2.254056 0.22454,-3.368099 -0.107111,-0.74978 -0.62769,-1.344685 -0.898159,-2.020858 -0.0556,-0.138987 0.03631,-0.303856 0,-0.44908 -0.10445,-0.417799 -0.459327,-0.972227 -0.67362,-1.347239 -0.300558,-0.525978 -0.676562,-1.57276 -1.347239,-1.796319 -0.775735,-0.258579 -1.092734,0.194574 -1.571779,0.673619 -0.231149,0.231149 -0.217931,0.442471 -0.44908,0.67362 -0.05293,0.05292 -0.171615,-0.05293 -0.22454,0 -0.105849,0.105849 0.04734,0.307068 0,0.44908 -0.126696,0.380087 -0.35213,0.734902 -0.44908,1.122699 -0.124771,0.499084 -0.184594,4.875119 0,5.613497 0.319215,1.276854 0.22454,0.03316 0.22454,1.571784 0,1.28305 0.22454,2.51395 0.22454,3.81717 0,0.37424 0,0.74847 0,1.1227 0,0.0749 0.03347,0.29149 0,0.22454 -0.452225,-0.90445 -1.151846,-2.16659 -1.347239,-3.14356 -0.04404,-0.22018 0.06603,-0.45901 0,-0.67362 -0.226117,-0.73488 -0.957283,-2.997845 -1.571779,-3.817174 -1.211333,-1.61511 0.249324,0.473865 -0.89816,-0.673619 -0.05744,-0.05744 -1.071045,-2.159308 -1.122699,-2.245399 -0.346121,-0.576868 -0.998681,-0.599862 -1.347239,-1.122699 -0.232291,-0.348436 0.381432,-0.146094 -0.22454,-0.44908 -0.676424,-0.338212 -1.670991,0.219316 -2.245399,0.44908 -0.219757,0.0879 -0.461921,0.11869 -0.67362,0.224539 -0.02959,0.0148 -2.013948,2.203935 -2.020859,2.245399 -0.04922,0.295313 0.05356,0.603602 0,0.89816 -0.09747,0.536102 -0.342217,1.037469 -0.449079,1.571779 -0.305479,1.527394 0.0088,3.429754 0.22454,4.939874 0.03175,0.22229 -0.07884,0.46338 0,0.67362 0.153239,0.40864 0.520379,0.71406 0.673619,1.1227 0.129992,0.34665 0,1.17526 0,1.57178 0,0.0748 0.01815,-0.15193 0,-0.22454 -0.132155,-0.52862 -0.27677,-1.05485 -0.44908,-1.57178 -0.327076,-0.98123 -0.673619,-1.65442 -0.673619,-2.69448 0,-1.24508 -0.957807,-5.937445 -1.571779,-6.960732 -0.108918,-0.18153 -0.354406,-0.259731 -0.44908,-0.44908 -0.06695,-0.13389 0,-0.299387 0,-0.44908 -0.07485,-0.22454 -0.102766,-0.470663 -0.22454,-0.67362 -0.108918,-0.181529 -0.272936,-0.33165 -0.44908,-0.449079 -0.06228,-0.04152 -0.191067,0.06695 -0.22454,0 -0.153155,-0.306311 -0.0015,-0.841644 -0.673619,-0.67362 -1.184887,0.296222 -0.71222,0.322789 -1.571779,1.796319 -1.393132,2.388226 -1.1227,3.641061 -1.1227,6.287112 0,0.34568 -0.143776,1.81408 0,2.2454 0.08534,0.25602 0.363742,0.41761 0.44908,0.67362 0.320408,0.96123 0.29226,1.75356 0.44908,2.69448 0.02751,0.16509 0.191717,0.28497 0.22454,0.44908 0.04404,0.22018 -0.07101,0.4606 0,0.67362 0.02367,0.071 0.171615,-0.0529 0.224539,0 0.05292,0.0529 0.05292,0.27747 0,0.22454 -0.637945,-0.63794 -0.562704,-1.69353 -0.673619,-2.46994 -0.03347,-0.2343 -0.149693,-0.44908 -0.22454,-0.67362 -0.07485,-0.37423 -0.182394,-0.74339 -0.22454,-1.1227 -0.06139,-0.55253 0.156993,-1.47138 0,-2.02086 -0.327197,-1.14519 -0.504261,-0.55562 -0.67362,-1.57177 -0.0885,-0.531026 -0.07836,-1.060143 -0.224539,-1.571784 -0.260551,-0.911929 -0.7767,-1.604938 -1.1227,-2.469939 -0.157543,-0.393857 -0.804618,-1.528113 -1.347239,-1.347239 -0.62488,0.208293 -1.631045,0.910682 -1.796319,1.571779 -0.05446,0.217836 0.05446,0.455784 0,0.67362 -0.02567,0.102689 -0.191068,0.124122 -0.22454,0.22454 -0.195176,0.585528 -0.347613,1.187515 -0.44908,1.796319 -0.129237,0.775424 0,1.683574 0,2.469934 0,1.24618 -0.12403,2.57688 0,3.81718 0.09479,0.94788 0.22454,1.75272 0.22454,2.69448 0,0.37423 0,0.74847 0,1.1227 0,0.0748 0,0.29939 0,0.22454 0,-1.12948 0.02936,0.4594 -0.22454,-1.57178 -0.05339,-0.42714 0.085,-0.92226 0,-1.34724 -0.106862,-0.53431 -0.37202,-1.03236 -0.449079,-1.57178 -0.06351,-0.44456 0.07383,-0.90427 0,-1.34724 -0.265973,-1.59583 -0.772985,-3.2797 -1.34724,-4.715334 -0.114611,-0.286529 -0.109928,-0.611631 -0.22454,-0.89816 -0.117934,-0.294835 -0.483091,-0.419581 -0.673619,-0.673619 -0.142012,-0.189349 -0.05718,-0.506258 -0.22454,-0.67362 -0.05293,-0.05292 -0.151928,-0.01815 -0.22454,0 -1.335845,0.333961 -2.131886,1.420428 -2.919018,2.469939 -0.57002,0.760024 -1.7544,1.986414 -2.020859,2.919014 -0.235237,0.82333 0,2.05712 0,2.91902 0,1.8337 0.0031,3.56789 -0.22454,5.38896 z"
       id="path3" />
    <path
       style="fill:none;stroke:#21dbc7;stroke-width:1.13386;stroke-linejoin:round;paint-order:fill markers stroke"
       d="m 63.993865,98.123926 c 0.299387,0 0.89816,0.299387 0.89816,0 0,-0.299386 -1.197546,0 -0.89816,0 1.197546,0 2.395092,0 3.592638,0 0.17991,0 1.203874,0.143366 1.347239,0 0.211699,-0.211698 0,-0.598773 0,-0.898159 0,-1.11713 0.178817,-3.774172 -0.22454,-4.715338 -0.171917,-0.401139 -0.520379,-0.71406 -0.673619,-1.122699 -0.236524,-0.63073 0.07439,-1.351359 0,-2.020859 -0.100935,-0.908417 -0.431965,-1.808411 -0.67362,-2.694478 -0.142265,-0.52164 -0.247443,-1.483162 -0.44908,-2.020859 -0.435172,-1.160459 -0.721113,-2.163341 -1.122699,-3.368098 -0.03347,-0.100418 -0.198868,-0.121852 -0.22454,-0.22454 -0.108918,-0.435672 0.06351,-0.902673 0,-1.34724 -0.137308,-0.961154 -0.670509,-1.783877 -0.898159,-2.694478 -0.05446,-0.217836 0.158773,-0.514846 0,-0.67362 -0.105849,-0.105849 -0.31149,-0.05897 -0.44908,0 -1.949831,0.835642 -2.953136,2.41474 -3.817178,4.266258 -1.348699,2.89007 -1.129317,6.414752 -0.22454,9.430675 0.272045,0.906815 0.513651,1.829333 0.89816,2.694478 0.08598,0.193453 0.397735,0.243703 0.449079,0.44908 0.108918,0.435671 -0.142011,0.921205 0,1.347239 0.534195,1.602584 2.062604,1.759632 2.469939,3.592638 0.414756,1.8664 -1.44357,1.796319 -0.44908,1.796319"
       id="path4" />
    <path
       style="fill:none;stroke:#21dbc7;stroke-width:1.13386;stroke-linejoin:round;paint-order:fill markers stroke"
       d="m 75.669939,95.204908 c 0.436956,0.06897 5.543312,0.519264 5.838036,0.22454 0.05293,-0.05292 -0.04491,-0.164663 0,-0.22454 0.190529,-0.254038 0.531609,-0.389597 0.67362,-0.67362 0.200835,-0.401669 -0.118161,-0.913983 0,-1.347239 0.168261,-0.616957 0.518521,-1.175923 0.67362,-1.796319 0.282069,-1.128276 -0.228391,-2.450682 0,-3.592638 0.03282,-0.164112 0.197025,-0.283995 0.22454,-0.44908 0.324149,-1.944899 -0.0404,-5.510142 -0.67362,-7.409816 -0.158774,-0.476321 -0.469703,-0.888427 -0.67362,-1.347239 -0.665987,-1.498471 -0.806465,-3.051864 -2.020859,-4.266258 -0.278653,-0.278653 -1.081368,0.183209 -1.347239,0.44908 -0.625894,0.625894 -1.350998,1.241548 -1.796319,2.020859 -0.234858,0.411002 -0.205532,0.941326 -0.44908,1.347239 -0.108917,0.18153 -0.354405,0.259731 -0.449079,0.44908 -0.06695,0.13389 0.05559,0.310093 0,0.44908 -0.100225,0.250562 -0.390539,0.410182 -0.44908,0.673619 -0.09742,0.438386 0.0557,0.901628 0,1.34724 -0.02076,0.166069 -0.183949,0.286714 -0.22454,0.449079 -0.192839,0.771358 0,1.891387 0,2.694479 0,1.539984 -0.118338,3.176938 0,4.715337 0.07485,0.67362 0.149693,1.34724 0.22454,2.020859 0.07485,0.299387 0.186263,0.591942 0.22454,0.89816 0.142769,1.142155 0.05778,2.200793 0.22454,3.368098 z"
       id="path5" />
    <path
       style="fill:none;stroke:#21dbc7;stroke-width:1.13386;stroke-linejoin:round;paint-order:fill markers stroke"
       d="m 87.121472,92.734969 c 0.540973,-0.10349 6.584677,0.15152 6.736197,0 0.44692,-0.44692 0.22454,-3.651108 0.22454,-4.490797 0,-2.742615 0.247867,-5.58143 0,-8.307976 -0.06551,-0.720608 -1.029546,-3.524972 -1.34724,-4.266257 C 92.500579,75.123028 92.030765,74.680025 91.83681,74.09816 91.73922,73.805395 91.75028,73.476021 91.61227,73.2 c -0.03152,-0.06304 -1.235249,-2.077134 -1.571779,-2.245399 -0.132516,-0.06626 -0.5227,0 -0.67362,0 -1.038944,0 -0.948074,0.374254 -1.571779,1.1227 -0.203289,0.243946 -0.497476,0.409404 -0.67362,0.673619 -0.808969,1.213454 -1.141379,5.501418 -0.898159,6.960736 0.215986,1.29592 0.960618,2.520528 1.122699,3.817178 0.09595,0.767605 -0.18729,1.720777 0,2.469939 0.194791,0.779165 0.597887,0.814448 0.67362,1.571779 0.05213,0.521326 -0.05213,1.050453 0,1.571779 0.109503,1.095028 0.237457,0.276211 0.44908,1.1227 0.05446,0.217835 -0.07101,0.460602 0,0.673619 0.210758,0.632274 0.449079,1.345536 0.449079,2.020859"
       id="path6" />
    <path
       style="fill:none;stroke:#21dbc7;stroke-width:1.13386;stroke-linejoin:round;paint-order:fill markers stroke"
       d="m 102.16564,92.28589 c 1.38417,-0.158087 2.74177,-0.378179 4.04172,-0.89816 0.31079,-0.124313 0.57632,-0.357124 0.89816,-0.44908 0.70461,-0.201316 2.50229,0.192193 3.14356,-0.449079 0.40043,-0.400426 0.12329,-0.616442 0.22454,-1.1227 0.0376,-0.188224 0.83137,-2.134075 0.89816,-2.245399 0.31751,-0.529179 0.55198,-0.289965 0.67362,-0.898159 0.11743,-0.587145 -0.0596,-1.200518 0,-1.796319 0.19139,-1.913918 0.40111,-3.895775 0.22454,-5.838037 -0.19549,-2.15032 -0.19697,-0.100476 -0.67362,-2.245399 -0.14483,-0.651749 0.26221,-1.633562 0,-2.245398 -0.17192,-0.40114 -0.52038,-0.71406 -0.67362,-1.1227 -0.0788,-0.210243 0.0317,-0.451336 0,-0.67362 -0.11752,-0.822616 -0.45886,-1.991605 -0.89816,-2.694478 -0.27938,-0.447 -2.20216,-3.264429 -2.69448,-3.592638 -0.10284,-0.06856 -1.26994,-0.0773 -1.34724,0 -0.11834,0.118343 -0.12412,0.31519 -0.22454,0.44908 -0.12702,0.169358 -0.3544,0.259731 -0.44908,0.449079 -0.19423,0.388468 -0.38142,1.997306 -0.44908,2.245399 -0.10605,0.388859 -0.36164,0.729236 -0.44908,1.1227 -0.0649,0.292257 0.0298,0.600258 0,0.898159 -0.0453,0.453015 -0.17924,0.894225 -0.22454,1.347239 -0.10261,1.026154 0.16917,2.128538 0,3.143559 -0.0778,0.466931 -0.38213,0.878625 -0.44908,1.347239 -0.0847,0.592755 0.0398,1.198872 0,1.796319 -0.12567,1.885123 -0.22454,3.711579 -0.22454,5.613497 0,1.061761 0.60893,5.458548 0.22454,6.062577 -0.42715,0.671242 -1.04785,1.197546 -1.57178,1.796319 z"
       id="path7" />
    <path
       style="fill:none;stroke:#21dbc7;stroke-width:1.13386;stroke-linejoin:round;paint-order:fill markers stroke"
       d="m 135.17301,86.447853 c 0.44908,-0.22454 0.88842,-0.469703 1.34724,-0.67362 1.26829,-0.563687 2.47577,-0.787348 3.81717,-1.122699 1.15454,-0.288634 1.95856,-0.67362 3.14356,-0.67362 0.43514,0 1.3809,0.12356 1.57178,-0.44908 0.26507,-0.795221 0,-4.49858 0,-5.613497 0,-2.245383 0.14035,-4.546838 -0.22454,-6.736196 -0.0369,-0.221485 0.0617,-0.457719 0,-0.67362 -0.0919,-0.321845 -0.3529,-0.577551 -0.44908,-0.898159 -0.32,-1.066675 -0.27926,-2.316466 -0.67362,-3.368098 -0.21188,-0.565012 -0.65308,-1.020355 -0.89816,-1.571779 -0.1637,-0.368323 -0.26882,-0.762191 -0.44908,-1.1227 -0.17963,-0.359264 -0.71853,-0.538895 -0.89816,-0.898159 -0.0335,-0.06694 0.067,-0.191068 0,-0.22454 -0.13389,-0.06694 -0.30707,0.04734 -0.44908,0 -0.20083,-0.06694 -0.2437,-0.397736 -0.44908,-0.44908 -1.90192,-0.47548 -3.11339,1.983153 -4.04171,3.143558 -0.27461,0.343251 -0.96293,0.947814 -1.1227,1.34724 -0.0834,0.20848 0.0369,0.452135 0,0.673619 -0.0389,0.233466 -0.1497,0.44908 -0.22454,0.67362 -0.0748,0.299386 -0.1809,0.592661 -0.22454,0.898159 -0.0911,0.637482 0,1.37615 0,2.020859 0,0.420042 -0.0594,1.156067 0,1.571779 0.13292,0.930438 0.55573,1.751377 0.67362,2.694479 0.20005,1.600449 -0.31585,3.360637 0,4.939877 0.17091,0.854581 0.22454,1.588797 0.22454,2.469939"
       id="path8" />
    <path
       style="fill:none;stroke:#21dbc7;stroke-width:1.13386;stroke-linejoin:round;paint-order:fill markers stroke"
       d="m 133.15215,90.040491 c 2.52376,0 -1.25381,0.13389 2.2454,-0.67362 0.51051,-0.11781 1.04918,0.03733 1.57178,0 1.43033,-0.102167 2.85513,-0.438433 4.26625,-0.673619 1.19045,-0.198408 2.40414,-0.239345 3.59264,-0.44908 3.15962,-0.557581 6.27049,-1.456541 9.43068,-2.020859 3.09603,-0.552864 6.31339,-0.413846 9.43067,-0.67362 1.52568,-0.127139 0.81718,0.216196 2.46994,-0.22454 3.79023,-1.010727 0.26385,-0.431485 5.16442,-2.020859 1.6923,-0.548855 3.41269,-1.036448 5.16441,-1.347239 2.89766,-0.5141 5.84046,-0.73008 8.75706,-1.122699 3.39703,-0.457293 6.71908,-1.288538 10.10429,-1.796319 1.35072,-0.202607 2.68788,-0.493108 4.04172,-0.67362 3.40263,-0.453683 -0.71791,0.53377 2.69448,-0.22454 0.70312,-0.156249 1.59954,-0.350691 2.2454,-0.673619 0.0947,-0.04734 0.12185,-0.198868 0.22454,-0.22454 0.21783,-0.05446 0.47278,0.100417 0.67362,0 0.28402,-0.142012 0.38175,-0.548532 0.67362,-0.67362 0.27518,-0.117934 0.59877,0 0.89816,0 0.29938,-0.149693 0.60753,-0.28301 0.89816,-0.44908 0.88213,-0.504077 1.93165,-1.336691 2.91901,-1.571779 1.10184,-0.262341 2.26674,-0.184753 3.3681,-0.449079 1.40562,-0.337348 2.63935,-1.221187 4.04172,-1.57178 0.58542,-0.146354 1.2161,-0.05876 1.79632,-0.22454 0.48277,-0.137933 0.86211,-0.54425 1.34724,-0.673619 2.04037,-0.5441 4.23733,-0.181717 6.28712,-0.44908 0.99019,-0.129155 1.9352,-0.502522 2.91901,-0.67362 0.74108,-0.128882 1.50433,-0.09566 2.2454,-0.224539 0.98381,-0.171098 1.93521,-0.502522 2.91902,-0.67362 2.86307,-0.497926 5.8569,-0.67362 8.75706,-0.67362 1.69935,0 3.47833,0.187343 5.16441,0 1.19263,-0.132514 2.25781,-0.789612 3.3681,-1.122699 0.34424,-0.10327 2.66938,-0.402272 2.91902,-0.44908 0.67823,-0.127168 1.35512,-0.267515 2.02086,-0.44908 0.16146,-0.04403 0.2834,-0.200871 0.44908,-0.224539 0.37047,-0.05293 0.75573,0.07339 1.1227,0 0.69627,-0.139254 1.32771,-0.519587 2.02086,-0.67362 0.66162,-0.147028 1.36333,-0.06016 2.02086,-0.22454 0.32473,-0.08118 0.5714,-0.376468 0.89816,-0.44908 0.24465,-0.05437 2.69378,-0.07438 2.91901,-0.22454 0.17615,-0.117429 0.27973,-0.32206 0.44908,-0.449079 0.79764,-0.598227 4.36037,-1.948196 4.4908,-2.469939 0.37743,-1.509714 -0.24279,-4.587573 0,-6.287117 0.0237,-0.16568 0.19172,-0.284967 0.22454,-0.449079 0.27226,-1.361277 0,-4.620654 0,-6.062577 0,-2.020586 0.32259,-4.505501 -0.22454,-6.511656 -0.39543,-1.449917 -1.19411,-3.026143 -2.02086,-4.266258 -0.67939,-1.019093 -0.96398,-1.048392 -1.57178,-2.020859 -0.66081,-1.057298 -1.3241,-2.09842 -2.02086,-3.143558 -0.48421,-0.726324 -4.04229,-5.913077 -5.16441,-6.287117 -0.27258,-0.09086 -0.85265,0 -1.1227,0 -0.22454,0 -0.50464,-0.14786 -0.67362,0 -0.48455,0.423982 -0.70681,1.080269 -1.1227,1.571779 -0.41024,0.484823 -0.92531,0.872564 -1.34724,1.34724 -2.37929,2.676703 -5.19502,6.787098 -5.6135,10.553374 -0.11149,1.003466 0,2.133392 0,3.143558 0,2.095706 0,4.191411 0,6.287117 0,1.488472 -0.28067,5.838059 0,6.960736 0.40065,1.602596 1.61784,5.924406 1.1227,7.409816 -0.0121,0.03625 -2.14321,1.097151 -2.2454,1.122699 -0.29044,0.07261 -0.59953,-0.02133 -0.89816,0 -2.01338,0.143813 -3.85827,0.65069 -5.83803,0.89816 -0.51988,0.06499 -1.05631,-0.09372 -1.57178,0 -1.14319,0.207852 -2.24086,0.616349 -3.3681,0.898159 -3.80016,0.950039 2.24839,-0.691583 -2.69448,0.44908 -0.46125,0.106442 -0.8815,0.3644 -1.34724,0.44908 -0.36819,0.06695 -0.75223,-0.05292 -1.1227,0 -0.16568,0.02367 -0.2903,0.171615 -0.44908,0.22454 -0.14201,0.04734 -0.34323,-0.10585 -0.44908,0 -0.0529,0.05292 0.0335,0.157595 0,0.224539 -0.26343,0.526858 -0.94485,0.131144 -1.1227,-0.224539 -0.13801,-0.276021 -0.0865,-0.622139 -0.22454,-0.89816 -0.0947,-0.189349 -0.3544,-0.259731 -0.44908,-0.44908 -0.24368,-0.487366 -0.23443,-1.070944 -0.44908,-1.571779 -0.41121,-0.95951 -1.09546,-1.911912 -1.34724,-2.919018 -0.36953,-1.478148 -0.71491,-2.995588 -1.12269,-4.490798 -0.10606,-0.388859 -0.38282,-0.725122 -0.44908,-1.122699 -0.17061,-1.023635 -0.0774,-2.113757 -0.22454,-3.143558 -0.16272,-1.13901 -0.89347,-2.221927 -1.1227,-3.368099 -0.42386,-2.119258 -0.3878,-4.392744 -1.57178,-6.287116 -0.1122,-0.17952 -0.38825,-0.24631 -0.44908,-0.44908 -0.1734,-0.577984 -0.1166,-1.20262 -0.22454,-1.796319 -0.22587,-1.242265 -0.92481,-2.272044 -1.79632,-3.143558 -0.0979,-0.09786 -0.61114,-0.817133 -0.89816,-0.67362 -2.86602,1.433008 -5.76445,3.66925 -7.63436,6.287117 -0.39681,0.55554 -0.60475,1.434054 -0.89816,2.020859 -0.19517,0.390352 -0.52038,0.71406 -0.67362,1.122699 -0.0788,0.210243 0.0591,0.456992 0,0.67362 -0.16826,0.616956 -0.5482,1.169247 -0.67362,1.796319 -0.17614,0.880717 0,1.796319 0,2.694478 0,1.796319 0,3.592638 0,5.388957 0,1.7434 -0.24613,3.665983 0,5.388957 0.0335,0.234307 0.1497,0.44908 0.22454,0.67362 0.0748,0.374233 0.1824,0.743389 0.22454,1.122699 0.0579,0.520722 -0.13785,1.066314 0,1.571779 0.18538,0.679695 3.22669,7.480523 2.46994,7.858896 -0.13389,0.06695 -0.31009,-0.05559 -0.44908,0 -0.25056,0.100225 -0.43224,0.328393 -0.67362,0.44908 -1.62697,0.813486 0.0762,-0.118004 -1.1227,0.22454 -1.21242,0.346408 -2.4139,0.875747 -3.59263,1.347239 -0.85468,0.341869 -1.80627,1.618677 -2.69448,1.796319 -0.22018,0.04404 -0.45134,-0.03175 -0.67362,0 -1.15126,0.164466 -2.24217,0.693444 -3.3681,0.89816 -0.91088,0.165613 -2.86999,0.224539 -3.81718,0.224539 -0.37423,0 -0.74846,0 -1.1227,0 -0.14969,0 -0.34323,0.10585 -0.44908,0 -0.21766,-0.217657 0.21198,-2.904958 0.22454,-3.143558 0.15165,-2.881252 -0.28744,-5.882608 0,-8.757055 0.12482,-1.248139 0.26156,-0.89571 0.44908,-2.020859 0.21063,-1.263736 0.32762,-2.541781 0.44908,-3.817178 0.18862,-1.980525 0,-4.071369 0,-6.062577 0,-0.994139 -0.28747,-1.568933 -0.67362,-2.469938 -0.88959,-2.075717 -1.80847,-4.041718 -4.26626,-4.041718 -0.0981,0 -1.46949,-0.10228 -1.57177,0 -0.0529,0.05293 0.0529,0.171615 0,0.22454 -0.13755,0.137547 -0.58765,0.191154 -0.67362,0.44908 -0.0473,0.142011 0.0669,0.31519 0,0.449079 -0.0947,0.189349 -0.35441,0.259731 -0.44908,0.44908 -0.11227,0.22454 0.0561,0.44908 0,0.67362 -0.0574,0.229619 -0.18563,0.440154 -0.22454,0.673619 -0.0738,0.44297 0.14201,0.921205 0,1.34724 -0.0853,0.256015 -0.37495,0.414139 -0.44908,0.673619 -0.0822,0.287868 0.0423,0.601782 0,0.89816 -0.0335,0.234307 -0.19107,0.439312 -0.22454,0.673619 -0.13581,0.950655 0.0737,1.960521 0,2.919019 0.16054,1.09437 -0.33219,2.091541 -0.44908,3.143558 -0.10299,0.92684 -0.0908,1.758183 -0.22454,2.694479 -0.3246,2.272156 0.25348,4.679417 0,6.960736 -0.0843,0.75862 -0.35441,1.488004 -0.44908,2.245399 -0.21673,1.733849 0.3344,3.148376 -0.44908,4.715337 -0.0669,0.13389 0.0669,0.31519 0,0.44908 -0.25469,0.509371 -0.79979,1.128258 -1.34724,1.347239 -0.13899,0.05559 -0.31009,-0.0556 -0.44908,0 -0.25056,0.100225 -0.42558,0.342775 -0.67362,0.44908 -1.74675,0.748607 -3.77698,0.816613 -5.6135,1.122699 -2.70787,0.451312 0.71222,-0.08771 -1.57178,0.67362 -0.21301,0.07101 -0.45133,-0.03175 -0.67362,0 -0.82216,0.117452 -1.41072,0.44908 -2.2454,0.44908 -0.23076,0 -3.04727,0.192558 -3.14355,0 -0.13389,-0.26778 0.0822,-0.610293 0,-0.89816 -0.0741,-0.25948 -0.34278,-0.425576 -0.44908,-0.67362 -0.80996,-1.889905 0.16179,-0.02646 -0.22454,-1.571779 -0.0978,-0.391027 -0.37698,-0.726139 -0.44908,-1.122699 -0.14575,-0.801604 0.13374,-1.667471 0,-2.469939 -0.15237,-0.914184 -0.0906,-1.307875 -0.22454,-2.245398 -0.0237,-0.165681 -0.19172,-0.284968 -0.22454,-0.44908 -0.21378,-1.068906 0.12026,-2.285728 0,-3.368098 -0.27949,-2.515371 -1.21809,-5.219078 -2.46994,-7.409816 -0.40167,-0.702921 -0.95407,-1.31315 -1.34724,-2.020859 -0.19574,-0.352339 -0.24171,-0.777077 -0.44908,-1.1227 -0.49951,-0.832507 -1.19173,-1.714206 -1.79632,-2.469938 -1.02255,-1.278186 -2.25551,-3.89034 -4.04172,-3.592638 -0.59522,0.0992 -1.06969,0.563435 -1.57178,0.898159 -1.60486,1.069906 -2.68725,2.830932 -3.59263,4.490798 -0.20899,0.383137 -0.55879,0.70165 -0.67362,1.122699 -0.11816,0.433256 0.0496,0.900906 0,1.347239 -0.0261,0.235239 -0.19107,0.439313 -0.22454,0.67362 -0.10585,0.740944 0,1.496933 0,2.245399 0,0.598944 -0.16813,1.656947 0,2.245399 0.39522,1.383299 1.38252,2.662409 1.79631,4.041717 0.13083,0.436074 0.12578,0.902807 0.22454,1.34724 0.23269,1.047081 0.34223,0.545468 0.89816,1.796319 0.19226,0.432572 0.27328,0.907724 0.44908,1.347239 0.46405,0.376436 0.0647,0.920953 0.22454,1.347239 0.15324,0.40864 0.53561,0.708668 0.67362,1.1227 0.0307,0.09202 0.24089,4.923526 0.22454,4.939877 -0.15877,0.158774 -0.48679,-0.124552 -0.67362,0 -0.13925,0.09284 -0.0853,0.356244 -0.22454,0.44908 -0.20357,0.135713 -2.57886,0 -2.91901,0 -2.69448,0 -5.38896,0 -8.08344,0"
       id="path9" />
    <path
       style="fill:none;stroke:#21dbc7;stroke-width:1.13386;stroke-linejoin:round;paint-order:fill markers stroke"
       d="m 129.78405,132.70307 c 1.26916,-0.0514 2.54975,0.0792 3.81718,0 2.73508,-0.17095 5.31247,-0.83792 8.08343,-0.89816 6.48621,-0.14101 13.05349,0.34113 19.53497,0 2.27751,-0.11987 4.4547,-0.9706 6.7362,-1.1227 0.67213,-0.0448 1.35878,0.12414 2.02086,0 0.56025,-0.10505 1.01878,-0.53537 1.57178,-0.67362 1.89836,-0.47459 3.92489,-0.23651 5.83803,-0.44908 0.75862,-0.0843 1.48881,-0.3482 2.2454,-0.44908 1.36316,-0.18176 2.8926,0 4.26626,0 3.64121,0 7.37497,0.24183 11.00245,0 2.12035,-0.14136 4.19057,-0.67747 6.28712,-0.89816 0.66992,-0.0705 1.34808,0.0336 2.02086,0 0.82568,-0.0413 1.64408,-0.187 2.46994,-0.22454 2.83477,-0.12885 5.69436,0 8.53251,0 1.04786,0 2.10212,0.11572 3.14356,0 1.66339,-0.18482 3.27918,-0.69057 4.93988,-0.89816 0.74269,-0.0928 1.49693,0 2.2454,0 0.89816,-0.0748 1.80226,-0.0971 2.69448,-0.22454 5.76681,-0.82383 1.49212,-0.61961 7.85889,-1.34724 2.61836,-0.29924 4.55803,-0.22454 7.18528,-0.22454 4.5076,0 8.9697,-0.0444 13.47239,-0.22454 1.28942,-0.0516 2.76575,0.21266 4.04172,0 0.10441,-0.0174 0.12986,-0.1772 0.22454,-0.22454 0.54854,-0.27427 1.17576,-0.22454 1.79632,-0.22454 1.01073,0 -0.21784,0.0363 1.34724,-0.22454 0.64602,-0.10767 1.62979,0 2.24539,0 2.02086,0 4.04172,0 6.06258,0 0.67362,0 1.34724,0 2.02086,0 0.42418,0 1.32595,-0.21389 0.89816,0 -0.2117,0.10585 -0.44908,0.1497 -0.67362,0.22454 -0.14969,0.22454 -0.22024,0.53059 -0.44908,0.67362 -1.40562,0.87851 -6.16269,0.67362 -7.8589,0.67362 -2.02085,0 -4.04171,0 -6.06257,0 -0.22182,0 -1.26413,0.0831 -1.34724,0 -0.0529,-0.0529 0.009,-0.15027 0,-0.22454 -0.0657,-0.52516 -0.18059,-1.04436 -0.22454,-1.57178 -0.0559,-0.67129 0.16338,-1.36735 0,-2.02086 -0.92757,-1.85514 -0.14086,0.053 -0.44908,-1.79632 -0.0588,-0.35267 -0.86901,-1.27921 -0.89816,-1.34724 -0.26838,-0.62621 0.0753,-1.79225 0,-2.46993 -0.42482,-3.82334 0.0642,1.2994 -0.67362,-2.02086 -0.19484,-0.87677 0.0597,-1.79831 0,-2.69448 -0.36291,-5.44373 -0.22454,-10.92628 -0.22454,-16.391412 0,-1.540508 -0.29289,-5.867249 0,-7.185276 0.0697,-0.313687 1.021,-2.143695 1.1227,-2.245399 0.2117,-0.211698 0.59877,0 0.89816,0 2.01135,0 3.5331,0.177724 5.6135,0.44908 0.67207,0.08766 1.36045,0.07214 2.02086,0.22454 0.32615,0.07527 0.57755,0.352897 0.89815,0.449079 0.52489,0.694268 1.21091,0.07819 1.79632,0.22454 1.85428,0.463569 3.99653,1.167421 5.6135,2.245399 3.27147,2.180978 2.91902,6.921104 2.91902,10.328834 0,1.068535 0.11532,2.123965 -0.22454,3.143555"
       id="path10" />
    <path
       style="fill:none;stroke:#21dbc7;stroke-width:1.13386;stroke-linejoin:round;paint-order:fill markers stroke"
       d="m 235.31779,125.06871 c 0.42831,-3.71814 -1.31352,-7.0167 -2.02086,-10.55337 -0.12699,-0.63498 0.20267,-1.41285 0,-2.02086 -0.10585,-0.31755 -0.36789,-0.57343 -0.44908,-0.89816 -0.33956,-1.35824 0.12955,-3.5149 0,-4.93988 -0.10151,-1.11665 -0.32417,-2.24393 -0.44908,-3.3681 -0.0331,-0.29755 0.0822,-0.61029 0,-0.89816 -0.0741,-0.25948 -0.35432,-0.42093 -0.44908,-0.67362 -0.134,-0.35734 -0.10385,-0.76064 -0.22454,-1.12269 -0.27395,-0.821878 -1.56267,-2.555581 -1.79632,-2.919023 -0.34225,-0.532396 -0.88867,-1.679306 -1.57177,-2.020859 -0.20084,-0.100418 -0.44908,0 -0.67362,0 -0.29939,0 -0.62458,-0.121593 -0.89816,0 -0.34229,0.152126 -4.08236,2.816395 -4.26626,3.368098 -0.0947,0.284023 0.0587,0.604587 0,0.898159 -0.0692,0.345765 -1.17058,1.881075 -1.34724,2.469935 -0.37887,1.26289 -0.67012,2.57257 -1.1227,3.81718 -0.1948,0.5357 -0.53537,1.01879 -0.67362,1.57178 -0.0908,0.36306 0.0669,0.7545 0,1.1227 -0.71869,3.9528 -0.27147,-1.95879 -0.89816,3.3681 -0.07,0.59467 0.0398,1.19887 0,1.79632 -0.0704,1.05614 -0.38305,2.08713 -0.44908,3.14356 -0.1771,2.83362 -0.16718,6.36407 0,9.20613 0.0959,1.62966 0.44908,3.10795 0.44908,4.71534"
       id="path11" />
    <path
       style="fill:none;stroke:#21dbc7;stroke-width:1.13386;stroke-linejoin:round;paint-order:fill markers stroke"
       d="m 201.63681,127.76319 c 0.40083,-3.27364 -0.92858,-6.16905 -1.79632,-9.20613 -1.00625,-0.8675 -0.23552,-1.95801 -0.44908,-2.91902 -0.0874,-0.39347 -0.34303,-0.73384 -0.44908,-1.1227 -0.11979,-0.43923 -0.0806,-0.91533 -0.22454,-1.34724 -0.15877,-0.47632 -0.50203,-0.87538 -0.67362,-1.34724 -0.13042,-0.35867 -0.10385,-0.76064 -0.22454,-1.1227 -0.18025,-0.54076 -0.49336,-1.03102 -0.67362,-1.57178 -0.56772,-1.70318 -0.86448,-3.34245 -1.79632,-4.93988 -0.77179,-1.32307 -1.94864,-2.69448 -3.59263,-2.69448 -0.22454,0 -0.4868,-0.12455 -0.67362,0 -0.70458,0.46972 -1.13509,1.26734 -1.79632,1.79632 -2.83255,2.26604 -0.0768,-0.37229 -2.2454,1.79632 -0.86146,0.86146 -1.91371,1.53302 -2.69448,2.46994 -0.46648,0.55977 -0.58191,1.38836 -0.89816,2.02086 -0.19518,0.39035 -0.52038,0.71406 -0.67362,1.1227 -0.0788,0.21024 0.0369,0.45213 0,0.67362 -0.3941,2.36457 -0.0993,-1.70124 -0.44908,1.79632 -0.10369,1.03686 -0.19366,4.29295 0,5.16442 0.128,0.57599 0.70934,2.28962 0.89816,2.91901 0.60223,2.00744 1.79632,3.9259 1.79632,6.06258"
       id="path12" />
    <path
       style="fill:none;stroke:#21dbc7;stroke-width:1.13386;stroke-linejoin:round;paint-order:fill markers stroke"
       d="m 171.99755,130.23313 c 0.5277,-4.22206 0.44908,-8.52308 0.44908,-12.79877 0,-1.06613 0.23388,-7.25081 0,-7.8589 -0.3004,-0.78103 -0.79307,-1.47625 -1.1227,-2.2454 -0.12157,-0.28365 -0.10298,-0.61451 -0.22454,-0.89816 -0.10631,-0.24804 -0.3284,-0.43224 -0.44908,-0.67362 -0.69088,-1.38176 -0.75113,-1.88933 -1.79632,-3.14356 -0.49101,-0.5892 -0.31749,-0.68719 -0.89816,-1.1227 -0.76987,-0.5774 -3.43274,-0.6343 -4.26626,-0.44908 -1.24642,0.27699 -4.9595,2.42126 -5.83804,3.59264 -1.15478,1.53971 -1.1227,5.13001 -1.1227,6.96074 0,2.09638 -0.23005,4.44118 0,6.51166 0.0523,0.47047 0.3644,0.8815 0.44908,1.34723 0.0674,0.3705 -0.0539,1.58975 0,2.02086 0.0945,0.75596 0.35459,1.48945 0.44908,2.2454 0.19102,1.52809 0.35301,3.17813 0.44908,4.71534 0.1426,2.28157 -0.21318,3.38514 1.1227,5.38896"
       id="path13" />
    <path
       style="fill:none;stroke:#21dbc7;stroke-width:1.13386;stroke-linejoin:round;paint-order:fill markers stroke"
       d="m 144.82822,131.35583 c 0.12702,-0.88913 -0.12702,-1.80535 0,-2.69448 0.0873,-0.611 0.34182,-1.18851 0.44908,-1.79632 0.11779,-0.66745 0.0916,-1.35625 0.22454,-2.02086 0.68641,-3.43203 0.18333,0.20605 0.67362,-2.2454 0.86856,-4.34278 -0.1666,0.8837 0.22454,-2.2454 0.14099,-1.1279 0.34673,-0.82228 0.67362,-2.02085 0.57503,-2.10846 -0.013,-0.56968 0.22454,-2.46994 0.23312,-1.86494 1.03829,-4.6129 0.22454,-6.51166 -0.63377,-1.47879 -1.66241,-2.47129 -2.46994,-3.81718 -0.20737,-0.34562 -0.29031,-0.75223 -0.44908,-1.1227 -0.83116,-1.93937 -1.89346,-2.2454 -3.81718,-2.2454 -0.44908,0 -0.91544,-0.12337 -1.34724,0 -1.8046,0.5156 -3.15333,2.16174 -4.26625,3.59264 -1.32569,1.70446 -2.99904,3.62364 -3.3681,5.83804 -0.0738,0.44297 0.032,0.8993 0,1.34724 -0.19843,2.77797 -0.22454,5.51329 -0.22454,8.30797 0,2.43492 -0.0523,4.82589 0.67362,7.18528 0.4344,1.4118 1.25322,2.83277 1.57178,4.26626 0.0921,0.41463 -0.28645,1.79632 0.44908,1.79632"
       id="path14" />
    <path
       style="fill:none;stroke:#21dbc7;stroke-width:1.13386;stroke-linejoin:round;paint-order:fill markers stroke"
       d="m 108.00368,131.80491 c 0.0398,-0.59745 -0.0398,-1.19887 0,-1.79632 0.0893,-1.33902 0.22454,-2.5091 0.22454,-3.81718 0,-1.38769 -0.19543,-2.89823 0,-4.26626 0.0335,-0.2343 0.19518,-0.43876 0.22454,-0.67362 0.0464,-0.37134 -0.0615,-0.75355 0,-1.1227 0.0896,-0.53747 0.33491,-1.03898 0.44908,-1.57177 0.43282,-2.01985 0.77065,-6.057 0.44908,-8.30798 -0.29645,-2.07515 -2.16397,-3.6132 -3.81718,-4.71534 -0.37345,-0.24896 -1.08568,-0.81714 -1.57178,-0.89816 -0.54102,-0.0902 -3.09264,-0.1875 -3.59263,0 -0.408644,0.15324 -0.767569,0.41995 -1.122704,0.67362 -1.191826,0.85131 -1.559244,1.64958 -2.020859,2.91902 -0.09199,0.25296 -0.985468,2.23704 -1.1227,2.69448 -1.162269,3.87423 -0.673619,8.13854 -0.673619,12.12515 0,1.57178 0,3.14356 0,4.71534 0,0.82331 -0.161465,1.66261 0,2.46994 0.06565,0.32822 0.34323,0.58061 0.44908,0.89816 0.04734,0.14201 -0.06695,0.31519 0,0.44908 0.09298,0.18596 3.456551,0.23588 3.592638,0.22454 2.191184,-0.1826 4.176074,-1.04402 6.287114,-1.57178 5.34363,-1.93026 -0.27309,0.31018 3.14356,-0.44908 0.32675,-0.0726 0.58475,-0.33155 0.89816,-0.44908 0.75246,-0.28217 1.46755,-0.22454 2.2454,-0.22454"
       id="path15" />
    <path
       style="fill:none;stroke:#21dbc7;stroke-width:1.13386;stroke-linejoin:round;paint-order:fill markers stroke"
       d="m 86.896933,154.70798 c 0.469066,-0.93246 0.06439,-1.95812 0.224539,-2.91902 0.05503,-0.33017 0.343231,-0.58062 0.44908,-0.89816 0.227166,-0.6815 0.3944,-1.7591 0.44908,-2.46994 0.327531,-4.25791 -0.597918,-9.80919 0.22454,-13.92147 0.302185,-1.51093 -0.253429,-3.19477 0,-4.71534 0.06626,-0.39758 0.351323,-0.73167 0.44908,-1.1227 0.316441,-1.26577 -0.255897,-2.76223 0,-4.04172 0.306373,-1.53187 0.195508,-2.92673 0,-4.4908 -0.102541,-0.82032 -0.05132,-1.66158 -0.22454,-2.46993 -0.05654,-0.26388 -0.299387,-0.44908 -0.44908,-0.67362 -0.07485,-0.29939 -0.173806,-0.59376 -0.22454,-0.89816 -0.245235,-1.47141 0.09768,-2.91649 -0.67362,-4.26626 -1.129353,-1.97637 -1.877507,-4.36817 -4.266257,-5.16442 -0.213018,-0.071 -0.45344,0.044 -0.67362,0 -0.56196,-0.11239 -1.164845,-0.43503 -1.796319,-0.22454 -1.347833,0.44928 -2.031552,3.31464 -2.245399,4.4908 -0.1205,0.66275 0.07439,1.35136 0,2.02086 -0.151707,1.36537 -0.791379,2.65357 -0.898159,4.04172 -0.125176,1.62728 -0.03409,3.32102 -0.22454,4.93987 -0.591146,5.02474 -0.378503,-0.52618 -0.67362,4.4908 -0.227252,3.86328 0,7.80706 0,11.67607 0,2.21523 -0.200845,4.52691 0,6.7362 0.03455,0.38008 0.177203,0.744 0.22454,1.1227 0.09061,0.7249 -0.143242,1.52919 0,2.2454 0.04642,0.23209 0.191068,0.43931 0.22454,0.67362 0.13404,0.93828 -0.205219,1.99553 0,2.91902 0.296677,1.33504 0.67362,1.84818 0.67362,3.14356"
       id="path16" />
    <path
       style="fill:none;stroke:#21dbc7;stroke-width:1.13386;stroke-linejoin:round;paint-order:fill markers stroke"
       d="m 61.523926,135.17301 c 6.399608,0 -0.654938,0.33214 2.469939,-0.44908 0.363059,-0.0908 0.764249,0.10753 1.122699,0 0.418022,-0.12541 0.703065,-0.55373 1.1227,-0.67362 0.651687,-0.1862 1.36333,-0.0602 2.020859,-0.22454 0.195864,-0.049 3.013015,-0.99216 3.368098,-1.34724 0.350135,-0.35014 -0.08906,-2.83376 0,-3.3681 0.08958,-0.53748 0.3595,-1.0343 0.44908,-1.57178 0.19396,-1.16376 0.112294,-4.6028 0,-5.83804 -0.07576,-0.83337 -0.379587,-1.63601 -0.44908,-2.46994 -0.04351,-0.52211 0.11781,-1.06127 0,-1.57177 -0.180254,-0.78111 -0.891097,-1.87681 -1.1227,-2.91902 -0.797749,-3.58988 0.470446,0.94089 -0.898159,-1.79632 -0.170677,-0.34135 -0.06954,-0.77395 -0.22454,-1.1227 -0.0073,-0.0164 -0.981081,-1.6547 -1.122699,-1.79632 -0.22454,-0.22454 -0.360393,-0.72582 -0.67362,-0.67362 -0.397577,0.0663 -0.735146,0.33835 -1.122699,0.44908 -0.143934,0.0411 -0.329325,-0.0898 -0.44908,0 -1.526255,1.14469 -3.131244,3.38099 -3.817178,5.16442 -0.163434,0.42493 -0.05546,0.92452 -0.22454,1.34724 -0.138987,0.34746 -0.521629,0.55618 -0.673619,0.89816 -0.155001,0.34875 -0.09054,0.76535 -0.22454,1.1227 -0.09476,0.25268 -0.396156,0.40899 -0.44908,0.67361 -0.102751,0.51376 0.03268,1.04888 0,1.57178 -0.300636,4.81018 -0.114907,-0.41743 -0.44908,3.59264 -0.153426,1.84111 -0.222973,6.06885 0.22454,7.8589 0.240682,0.96273 0.841795,2.30084 1.122699,3.14356 z"
       id="path17" />
    <path
       style="fill:none;stroke:#21dbc7;stroke-width:1.13386;stroke-linejoin:round;paint-order:fill markers stroke"
       d="m 45.806135,135.17301 c 1.285502,-0.16017 2.737163,0.59727 4.041718,0.22454 0.548083,-0.1566 1.018783,-0.53537 1.571779,-0.67362 0.655135,-0.16379 1.125448,-0.15428 1.571779,-0.89816 0.133705,-0.22284 0.394338,-1.97169 0.44908,-2.2454 0.03282,-0.16411 0.149693,-0.29939 0.22454,-0.44908 0.07485,-0.22454 0.185629,-0.44016 0.22454,-0.67362 0.117861,-0.70717 0,-1.52684 0,-2.2454 0,-1.57178 0,-3.14356 0,-4.71534 0,-2.01667 0.471179,-4.56992 -0.67362,-6.28711 -0.346224,-0.51934 -0.01512,-0.67866 -0.67362,-0.89816 -0.359333,-0.11978 -1.214075,0 -1.571779,0 -1.110955,0 -1.420801,0.43553 -2.245399,1.1227 -0.207314,0.17276 -0.523926,0.22454 -0.673619,0.44908 -0.171181,0.25677 -0.08653,0.62213 -0.22454,0.89816 -0.167362,0.33472 -0.555277,0.54313 -0.67362,0.89815 -0.118343,0.35503 0.07339,0.75574 0,1.1227 -0.195174,0.97587 -0.715163,1.91254 -0.898159,2.91902 -0.414772,2.28125 -0.22454,4.65358 -0.22454,6.96074 0,0.56125 -0.242311,4.39009 -0.22454,4.4908 0.145425,0.82407 0.530985,1.65368 1.122699,2.24539"
       id="path18" />
    <path
       style="fill:none;stroke:#21dbc7;stroke-width:1.13386;stroke-linejoin:round;paint-order:fill markers stroke"
       d="m 35.252761,134.27485 c 1.150952,-0.11659 2.078039,0.36918 3.143558,0.67362 0.644832,0.18423 0.371789,-0.33865 1.122699,0.22454 0.13389,0.10041 0.06915,0.38692 0.22454,0.44908 0.277974,0.11119 0.598773,0 0.89816,0 0.149693,0 0.324527,0.083 0.44908,0 0.542198,-0.36147 1.169211,-3.05856 1.347239,-3.59264 0.29489,-0.88467 0.89733,-1.793 1.122699,-2.69448 0.154873,-0.61949 0,-1.59352 0,-2.2454 0,-2.59065 0.296059,-5.44329 -1.347239,-7.63436 -0.805711,-1.07428 -0.687917,-0.37899 -1.571779,-0.67361 -0.716512,-0.23884 -1.173259,-0.39853 -1.796319,0.22453 -1.049209,1.04921 -0.612942,1.45043 -1.1227,2.46994 -0.318982,0.63797 -0.592993,0.6216 -0.673619,1.34724 -0.0973,0.87573 0.124992,1.81953 0,2.69448 -0.1507,1.0549 -0.29838,2.08866 -0.44908,3.14356 -0.0688,0.4816 -0.05355,3.47519 -0.22454,3.81718 -0.315778,0.63155 -0.748466,1.19754 -1.122699,1.79632 z"
       id="path19" />
    <path
       style="fill:none;stroke:#21dbc7;stroke-width:1.13386;stroke-linejoin:round;paint-order:fill markers stroke"
       d="m 25.597546,136.29571 c 3.517928,-0.62501 -4.941221,1.21278 2.245399,-0.22454 0.07339,-0.0147 -0.05293,-0.17162 0,-0.22454 0.118343,-0.11835 0.330737,-0.1062 0.44908,-0.22454 0.980388,-0.98039 0.678926,-1.59832 0.898159,-2.69448 0.03282,-0.16411 0.171615,-0.29031 0.22454,-0.44908 0.08982,-0.26945 -0.08982,-0.62871 0,-0.89816 0.02367,-0.071 0.206387,0.0726 0.22454,0 0.18153,-0.72612 -0.05333,-1.49884 0,-2.2454 0.0589,-0.82461 0.08863,-1.65448 0.22454,-2.46994 0.03891,-0.23346 0.178122,-0.44153 0.22454,-0.67362 0.106513,-0.53257 0.156923,-4.78295 -0.22454,-5.16442 -0.09249,-0.0925 -0.548876,-0.14969 -0.67362,-0.22454 -1.736141,-1.04168 -2.115522,-1.50793 -4.041718,-1.1227 -0.07339,0.0147 -0.171615,-0.0529 -0.22454,0 -0.321673,0.32168 -1.289287,2.28882 -1.347239,2.69448 -0.05292,0.37048 0,0.74847 0,1.1227 0,2.67294 0.07339,-0.436 -0.22454,2.2454 -0.14542,1.30878 0,2.72601 0,4.04172 0,1.49693 0,2.99386 0,4.4908"
       id="path20" />
    <path
       style="fill:none;stroke:#21dbc7;stroke-width:1.13386;stroke-linejoin:round;paint-order:fill markers stroke"
       d="m 15.717791,134.49939 c 1.469514,0.5346 3.754554,1.47248 4.715338,-0.44908 0.276021,-0.55204 0.279521,-1.20287 0.44908,-1.79632 0.52517,-1.8381 0.673619,-3.92204 0.673619,-5.83804 0,-1.60222 0.296822,-4.12939 0,-5.6135 -0.03282,-0.16411 -0.197025,-0.28399 -0.22454,-0.44908 -0.1402,-0.8412 -0.0055,-1.57177 -1.122699,-1.57177 -0.299387,0 -0.624577,-0.1216 -0.89816,0 -0.437946,0.19464 -0.723937,0.63231 -1.122699,0.89815 -1.029385,0.68626 -2.288088,1.43177 -3.368098,2.02086 -0.353846,0.19301 -0.813059,0.19105 -1.122699,0.44908 -0.181828,0.15153 -0.118691,0.46192 -0.22454,0.67362 -0.272349,0.5447 -0.872122,0.84609 -1.1227,1.34724 -0.22454,0.44908 -0.475838,0.88575 -0.673619,1.34724 -0.409449,0.95538 -0.115596,0.81582 -0.22454,1.79632 -0.159204,1.43283 -0.869865,5.83804 1.347239,5.83804"
       id="path21" />
    <path
       style="fill:none;stroke:#21dbc7;stroke-width:1.13386;stroke-linejoin:round;paint-order:fill markers stroke"
       d="m 92.959509,140.56196 c 2.196956,-0.87878 0.128174,-0.21249 2.020859,-0.44908 0.612435,-0.0765 1.182893,-0.38092 1.796319,-0.44908 1.292696,-0.14363 2.550401,-0.19572 3.817183,-0.44908 0.48679,-0.0974 1.07346,0 1.57177,0 1.9536,0 4.13311,0.27564 6.06258,0 0.68312,-0.0976 1.33883,-0.34415 2.02086,-0.44908 1.48659,-0.2287 3.20867,0 4.71534,0 2.57973,0 -0.24844,0.0249 4.49079,-0.22454 1.56961,-0.0826 3.14493,0.0654 4.71534,0 0.52879,-0.022 1.04388,-0.18683 1.57178,-0.22454 0.5226,-0.0373 1.05803,0.10275 1.57178,0 0.62707,-0.12541 1.17842,-0.50884 1.79632,-0.67362 2.35208,-0.62722 5.00208,-0.69751 7.40982,-0.89815 1.05483,-0.0879 2.08818,-0.3679 3.14355,-0.44908 1.89933,-0.14611 3.94928,0 5.83804,0 4.26626,0 8.53252,0 12.79877,0 2.00443,0 4.06408,0.14275 6.06258,0 1.49434,-0.10674 3.00572,-0.60291 4.4908,-0.67362 2.74644,-0.13079 5.55359,0 8.30797,0 6.21227,0 12.42454,0 18.63681,0 3.89203,0 7.78405,0 11.67608,0 2.67672,0 5.40851,-0.12738 8.08343,0 3.71654,0.17697 0.80051,0.21756 4.04172,0.44908 1.26916,0.0907 2.54637,-0.0635 3.81718,0 0.67692,0.0338 1.34481,0.17625 2.02086,0.22454 3.85081,0.27505 7.82052,0 11.67607,0 3.37015,0 5.54406,-0.0872 8.9816,-0.44908 0.85126,-0.0896 1.86512,0.20733 2.69447,0 0.10269,-0.0257 0.12987,-0.17721 0.22454,-0.22454 0.27208,-0.13604 0.82227,0.0501 1.1227,0 0.73973,-0.12329 0.9514,-0.24229 1.57178,-0.44908 0.40258,-0.1342 1.15316,0 1.57178,0"
       id="path22" />
    <path
       style="fill:none;stroke:#21dbc7;stroke-width:1.13386;stroke-linejoin:round;paint-order:fill markers stroke"
       d="m 92.510429,143.25644 c 1.070286,1.88942 0.03979,4.24066 0.44908,6.28712 0.238182,1.19091 0.67362,2.34617 0.67362,3.59264"
       id="path23" />
    <path
       style="fill:none;stroke:#21dbc7;stroke-width:1.13386;stroke-linejoin:round;paint-order:fill markers stroke"
       d="m 100.14479,142.80736 c -0.14697,2.85922 0.0355,5.69743 0.22454,8.53252 0.0398,0.59744 0,1.19754 0,1.79632 0,0.22454 -0.10042,0.47278 0,0.67362 0.23448,0.46897 0.22454,-0.98574 0.22454,-1.57178"
       id="path24" />
    <path
       style="fill:none;stroke:#21dbc7;stroke-width:1.13386;stroke-linejoin:round;paint-order:fill markers stroke"
       d="m 108.00368,145.50184 c 0.27768,2.8014 0.67362,5.10681 0.67362,7.8589"
       id="path25" />
    <path
       style="fill:none;stroke:#21dbc7;stroke-width:1.13386;stroke-linejoin:round;paint-order:fill markers stroke"
       d="m 53.665031,142.80736 c 0.627765,-0.0459 1.160003,-0.60999 1.796319,-0.67362 0.930373,-0.093 2.892831,-0.0191 3.817178,-0.22454 0.326753,-0.0726 0.576314,-0.35712 0.898159,-0.44908 0.575735,-0.16449 1.20217,0.0743 1.796319,0 1.09704,-0.13713 2.271059,-0.53649 3.368098,-0.67362 1.080516,-0.13506 2.268974,0 3.368098,0"
       id="path26" />
    <path
       style="fill:none;stroke:#21dbc7;stroke-width:1.13386;stroke-linejoin:round;paint-order:fill markers stroke"
       d="m 58.604908,146.62454 c -0.410653,2.35336 -0.22454,4.79558 -0.22454,7.18528"
       id="path27" />
    <path
       style="fill:none;stroke:#21dbc7;stroke-width:1.13386;stroke-linejoin:round;paint-order:fill markers stroke"
       d="m 63.769325,145.95092 c 1.392233,1.7574 1.531743,4.16762 2.020859,6.28712 0.248209,1.07557 0.22454,0.33228 0.22454,0.89816"
       id="path28" />
    <path
       style="fill:none;stroke:#21dbc7;stroke-width:1.13386;stroke-linejoin:round;paint-order:fill markers stroke"
       d="m 70.280982,145.50184 c -0.254842,2.15324 1.122699,3.97505 1.122699,6.06258"
       id="path29" />
    <path
       style="fill:none;stroke:#21dbc7;stroke-width:1.13386;stroke-linejoin:round;paint-order:fill markers stroke"
       d="m 61.074847,66.688344 c 1.718335,0.01191 3.497971,0.05085 5.164417,-0.44908 0.386063,-0.115819 0.729236,-0.361644 1.122699,-0.44908 0.292257,-0.06495 0.601085,0.03713 0.89816,0 0.62234,-0.07779 1.911978,-0.39464 2.469938,-0.67362 0.06694,-0.03347 -0.04152,-0.162263 0,-0.224539 0.117429,-0.176144 0.322061,-0.279722 0.44908,-0.44908 0.944203,-1.258938 0.44908,-3.259605 0.44908,-4.715338 0,-0.589167 0.381614,-2.963995 -0.22454,-3.368098 -1.809217,-1.206145 -8.641525,-0.673619 -11.002454,-0.673619 -1.737177,0 -5.166147,0.0035 -6.062577,1.796319 -0.217866,0.435731 0,1.545035 0,2.020858 0,2.26306 -0.234307,0.87537 0.44908,2.469939 0.09323,0.217549 0.07302,0.491793 0.22454,0.67362 0.239578,0.287494 0.633537,0.408997 0.898159,0.673619 1.147484,1.147484 -0.94149,-0.313173 0.67362,0.89816 0.427286,0.320464 0.919954,0.577695 1.347239,0.898159 0.40967,0.307253 0.696783,0.838755 1.1227,1.1227 0.124552,0.08303 0.303856,-0.03631 0.449079,0 0.528623,0.132155 1.049029,0.60283 1.57178,0.44908 0.876495,-0.257793 1.467307,-1.092954 2.245398,-1.57178 0.468981,-0.288603 2.17273,-0.82549 2.469939,-1.122699"
       id="path30" />
    <path
       style="fill:none;stroke:#21dbc7;stroke-width:1.13386;stroke-linejoin:round;paint-order:fill markers stroke"
       d="m 81.283436,51.868712 c 3.219007,-1.760484 -2.05972,1.835179 -1.57178,1.347239 0.487941,-0.48794 0.886454,-1.266613 1.57178,-1.347239 0.800601,-0.09419 1.44039,0.85579 2.245398,0.898159 0.709076,0.03732 1.339655,-0.473265 2.020859,-0.673619 1.63483,-0.480833 3.040255,-0.67362 4.715338,-0.67362 0.266968,0 2.101368,0.06352 2.245398,-0.22454 0.100418,-0.200835 0,-0.44908 0,-0.67362 0,-3.534591 -0.197266,-2.661143 -2.245398,-5.164417 -0.341776,-0.417725 -0.537102,-0.946063 -0.89816,-1.347239 -0.320603,-0.356225 -0.807109,-0.537485 -1.122699,-0.89816 -0.220418,-0.251905 -0.263408,-0.619652 -0.44908,-0.898159 -0.117429,-0.176144 -0.326033,-0.276814 -0.44908,-0.44908 -0.559059,-0.782683 -0.703938,-1.911591 -1.122699,-2.469938 -0.100417,-0.13389 -0.330737,-0.106197 -0.44908,-0.22454 -0.299386,-0.299387 0.476321,-0.21546 -0.22454,-0.44908 -2.0351,-0.678367 -4.362203,2.441953 -5.164417,3.817178 -0.203091,0.348156 -0.256073,0.768853 -0.44908,1.122699 -0.507663,0.930717 -1.320563,1.742968 -1.796319,2.694479 -0.468197,0.936395 -0.560558,3.997126 0.67362,4.490797 0.20848,0.08339 0.469206,-0.09291 0.67362,0 0.642811,0.292187 1.090217,1.1227 1.796319,1.1227 0.973006,0 1.762507,-0.843108 2.694478,-1.1227 1.133832,-0.340149 2.087887,-0.145784 3.143558,-0.673619"
       id="path31" />
    <path
       style="fill:none;stroke:#21dbc7;stroke-width:1.13386;stroke-linejoin:round;paint-order:fill markers stroke"
       d="m 96.776687,48.725153 c 0.374233,-0.07485 0.76064,-0.103853 1.1227,-0.22454 0.317547,-0.105849 0.580612,-0.34323 0.898159,-0.449079 0.284023,-0.09467 0.604587,0.05871 0.89816,0 1.025694,-0.205139 2.138064,-0.338454 3.143554,-0.67362 0.40641,0.135337 0.41761,-0.363741 0.67362,-0.44908 0.14201,-0.04734 0.31519,0.06694 0.44908,0 0.18935,-0.09467 0.25973,-0.354405 0.44908,-0.449079 0.13389,-0.06694 0.3023,0.02936 0.44908,0 1.08978,-0.217956 2.31182,-0.546066 3.3681,-0.89816 0.31755,-0.105849 0.57343,-0.367897 0.89816,-0.44908 0.47431,-0.118576 0.4741,0.199518 0.89816,-0.22454 0.31229,-0.312292 0.81041,-1.034947 1.1227,-1.347239 0.22454,-0.22454 0.5966,-0.365553 0.67362,-0.673619 0.21779,-0.871163 -1.5434,-3.066141 -2.2454,-3.592638 -0.35361,-0.265205 -2.11683,0 -2.46994,0 -3.90057,0 -5.60866,2.460267 -7.185275,5.613496 -0.07557,0.151148 -0.617606,0.842632 -0.673619,1.1227 -0.184544,0.922721 0,1.969593 0,2.919018"
       id="path32" />
    <path
       style="fill:none;stroke:#21dbc7;stroke-width:1.13386;stroke-linejoin:round;paint-order:fill markers stroke"
       d="m 99.471166,44.234356 c 0.449079,0.07485 0.928774,0.0452 1.347234,0.22454 0.15383,0.06593 0.12413,0.31519 0.22454,0.449079 0.7663,1.021732 1.2249,2.572138 2.02086,3.368099"
       id="path33" />
    <path
       style="fill:none;stroke:#21dbc7;stroke-width:1.13386;stroke-linejoin:round;paint-order:fill markers stroke"
       d="m 104.1865,40.866258 c 0.0335,1.899918 1.41543,3.729013 2.2454,5.388957 0.54083,1.081653 0.19858,1.096736 0.89816,1.796319"
       id="path34" />
    <path
       style="fill:none;stroke:#21dbc7;stroke-width:1.13386;stroke-linejoin:round;paint-order:fill markers stroke"
       d="m 108.22822,40.641718 c -0.45628,0.67383 1.50757,3.031099 1.79632,4.041718 0.0617,0.2159 -0.071,0.460602 0,0.673619 0.0483,0.145062 0.48753,0.936608 0.67362,1.1227"
       id="path35" />
    <path
       style="fill:none;stroke:#21dbc7;stroke-width:1.13386;stroke-linejoin:round;paint-order:fill markers stroke"
       d="m 81.732515,41.988957 c 0.266917,0.8643 -0.335051,2.08139 0,2.919018 0.22411,0.560274 0.642977,1.024959 0.89816,1.57178 0.759364,1.62721 1.277864,3.400929 1.571779,5.164417"
       id="path36" />
    <path
       style="fill:none;stroke:#21dbc7;stroke-width:1.13386;stroke-linejoin:round;paint-order:fill markers stroke"
       d="m 86.896933,41.539877 c -0.231945,3.278105 1.571779,6.242531 1.571779,9.430675"
       id="path37" />
    <path
       style="fill:none;stroke:#21dbc7;stroke-width:1.13386;stroke-linejoin:round;paint-order:fill markers stroke"
       d="m 59.278528,57.257669 c 1.681666,2.242221 -0.194262,-0.528124 0.898159,2.020859 0.333274,0.777638 0.539517,0.09354 0.67362,0.898159 0.794956,4.76974 -0.470424,-0.06403 0.898159,4.041718 0.120693,0.36208 -0.08395,0.898159 0.44908,0.898159"
       id="path38" />
    <path
       style="fill:none;stroke:#21dbc7;stroke-width:1.13386;stroke-linejoin:round;paint-order:fill markers stroke"
       d="m 66.239264,55.910429 c 0.347859,1.50162 -0.302192,3.204378 0,4.715338 0.199651,0.998255 0.771889,1.908855 0.898159,2.919018 0.04642,0.371344 -0.03724,0.750324 0,1.1227 0.02015,0.201497 0.09034,1.571779 0.44908,1.571779"
       id="path39" />
    <path
       style="fill:none;stroke:#21dbc7;stroke-width:1.13386;stroke-linejoin:round;paint-order:fill markers stroke"
       d="m 73.87362,65.790184 c 0.279498,-1.160811 1.084413,-0.205397 1.571779,-0.44908 0.334724,-0.167362 0.573234,-0.487948 0.898159,-0.673619 0.721901,-0.412515 2.327883,-0.918781 3.143559,-1.1227 0.217835,-0.05446 0.450813,0.02785 0.673619,0 0.757395,-0.09467 1.485898,-0.373129 2.245399,-0.449079 1.907874,-0.190788 0.366647,0.248092 2.020859,-0.22454 2.201528,-0.629008 4.215486,-2.087244 6.511656,-2.469939 0.386175,-0.06436 4.105057,-0.143939 4.266258,-0.22454 0.189349,-0.09467 0.252523,-0.370457 0.44908,-0.44908 0.287839,-0.115135 0.999857,0 1.347239,0"
       id="path40" />
    <path
       style="fill:none;stroke:#21dbc7;stroke-width:1.13386;stroke-linejoin:round;paint-order:fill markers stroke"
       d="m 102.83926,56.359509 c 1.64057,-0.0053 3.16172,0.163865 4.71534,-0.22454 1.45042,-0.362604 1.6443,0.240442 3.3681,-0.449079"
       id="path41" />
    <path
       style="fill:none;stroke:#21dbc7;stroke-width:1.13386;stroke-linejoin:round;paint-order:fill markers stroke"
       d="m 131.58037,57.257669 c 0,-0.299387 0.29938,-0.89816 0,-0.89816 -0.29939,0 -0.26778,1.032049 0,0.89816 0.75739,-0.378698 1.1669,-1.229845 1.79632,-1.796319 0.34759,-0.312833 1.30227,-0.262998 2.02086,-0.67362 1.10556,-0.631752 2.2055,-1.504151 3.36809,-2.020859 2.48651,-1.105116 -0.74845,0.780535 1.79632,-0.673619 2.01071,-1.148975 4.14958,-2.227469 6.28712,-3.143559 0.53219,-0.22808 1.03959,-0.220999 1.57178,-0.44908 1.24351,-0.532931 2.43366,-1.32023 3.81718,-1.571779 0.36819,-0.06695 0.74846,0 1.1227,0 0.52392,-0.22454 1.02185,-0.523638 1.57178,-0.673619 0.28883,-0.07877 0.61783,0.105121 0.89815,0 0.35041,-0.131402 0.57324,-0.487948 0.89816,-0.67362 0.88775,-0.507283 2.02546,-0.675918 2.91902,-1.122699 0.31146,-0.15573 0.8857,-0.782773 1.34724,-0.89816 0.9183,-0.229575 2.02852,-0.06743 2.91902,-0.44908 0.24804,-0.106304 0.41414,-0.374942 0.67362,-0.449079 0.28787,-0.08225 0.60108,0.03713 0.89816,0 0.55924,-0.0699 3.09178,-0.491491 3.59264,-0.67362 0.41015,-0.149146 0.74846,-0.44908 1.1227,-0.67362 0.74846,-0.299386 1.47597,-0.657713 2.2454,-0.898159 0.43455,-0.135797 0.91209,-0.09065 1.34724,-0.22454 3.87608,-1.661178 -0.29512,-0.0013 2.69447,-0.898159 1.44223,-0.432669 2.193,-1.685544 3.59264,-2.245399 0.61596,-0.246382 1.21885,-0.119095 1.79632,-0.44908 3.6644,-2.093944 -4.21408,1.496077 3.3681,-1.347239 1.2265,-0.45994 2.1298,-1.556496 3.3681,-2.020859 0.8422,-0.315827 1.62773,-0.133253 2.46994,-0.44908 1.95277,-0.732289 4.02293,-1.259571 6.06257,-1.796319 1.25351,-0.329869 2.60638,-0.444108 3.81718,-0.898159 0.25268,-0.09476 0.42094,-0.354325 0.67362,-0.44908 0.35734,-0.134004 0.75715,-0.114875 1.1227,-0.22454 2.69338,-0.808013 5.19379,-2.25519 7.85889,-3.143558 0.80959,-0.269864 1.66035,-0.403757 2.46994,-0.67362 1.95363,-0.651209 3.89435,-1.340567 5.83804,-2.020859 0.31593,-0.110576 0.58061,-0.343231 0.89816,-0.44908 0.14201,-0.04734 0.31519,0.06695 0.44908,0 0.0669,-0.03347 -0.071,-0.200871 0,-0.22454 0.21302,-0.071 0.45344,0.04404 0.67362,0 0.53431,-0.106862 1.04987,-0.292506 1.57178,-0.449079 1.29777,-0.38933 2.44223,-1.00812 3.81718,-1.1227 1.22611,-0.102176 1.48861,0.177414 2.69447,-0.22454 0.25602,-0.08534 0.41514,-0.371535 0.67362,-0.449079 0.91781,-0.275343 1.47397,-0.03168 2.2454,-0.22454 1.56958,-0.392394 -0.35607,-0.031 1.57178,-0.67362 1.15184,-0.383946 2.63085,-0.211814 3.81718,-0.44908 0.16411,-0.03282 0.29939,-0.149693 0.44908,-0.224539 0.29939,-0.07485 0.59194,-0.186263 0.89816,-0.22454 1.32642,-0.165803 2.72555,-0.229719 4.04172,-0.44908 0.16508,-0.02751 0.28399,-0.197026 0.44908,-0.22454 0.29531,-0.04922 0.60178,0.04234 0.89816,0 0.2343,-0.03347 0.43931,-0.191067 0.67362,-0.22454 0.68296,-0.09757 1.57667,0.167182 2.2454,0 0.32473,-0.08118 0.58061,-0.34323 0.89815,-0.44908 0.4501,-0.150031 1.30639,-0.340206 1.79632,-0.449079 1.2166,-0.270354 2.38013,-0.179634 3.59264,-0.44908 0.67519,-0.150041 1.16476,-0.51573 1.79632,-0.67362 1.76693,-0.441731 -1.77676,0.946959 1.34724,-0.22454 0.31341,-0.117529 0.57631,-0.357124 0.89816,-0.449079 0.65923,-0.188352 1.60973,-0.01265 2.2454,-0.22454 0.41403,-0.138011 0.72156,-0.501703 1.1227,-0.67362 0.30944,-0.132617 0.82246,0.150118 1.1227,0 0.77376,-0.386879 1.58073,-0.07634 2.46994,-0.22454 1.3355,-0.222584 2.69627,-1.05893 4.04171,-1.347239 4.41287,-0.945614 -0.43218,0.37609 3.14356,-0.44908 1.20418,-0.277887 1.4263,-0.44908 2.46994,-0.44908"
       id="path42" />
    <path
       style="fill:none;stroke:#21dbc7;stroke-width:1.13386;stroke-linejoin:round;paint-order:fill markers stroke"
       d="m 14.595092,96.103067 c 0.299387,-0.149693 1.047853,-0.149693 0.89816,-0.449079 -0.149694,-0.299387 -1.232884,0.449079 -0.89816,0.449079 7.033155,0 0.108627,-0.361353 2.919018,-0.673619 0.446333,-0.04959 0.899483,0.03444 1.34724,0 3.240921,-0.249302 -0.100228,-0.132989 3.143558,-0.67362 0.738283,-0.123047 1.504455,0.105849 2.245399,0 0.16568,-0.02367 0.284967,-0.191717 0.44908,-0.22454 0.734317,-0.146863 1.497454,-0.141435 2.245398,-0.22454 1.067374,-0.118597 2.076185,-0.555022 3.143559,-0.673619 0.669499,-0.07439 1.349223,0.05166 2.020858,0 0.307692,-0.02367 0.590827,-0.196601 0.89816,-0.22454 0.521775,-0.04743 1.049184,0.03733 1.571779,0 1.571088,-0.112221 3.165461,-0.479885 4.715338,-0.67362 1.15059,-0.143824 2.242317,-0.737333 3.368098,-0.898159 0.296377,-0.04234 0.610292,0.08225 0.898159,0 2.944667,-0.841334 -1.296951,0.08186 1.347239,-0.67362 1.520157,-0.43433 3.040103,-0.725513 4.490798,-1.347239 0.554642,-0.237704 1.017137,-0.660456 1.571779,-0.89816 0.13759,-0.05897 0.324528,0.08304 0.44908,0 0.339736,-0.22649 0.242235,-0.529824 0.67362,-0.673619 0.142011,-0.04734 0.310093,0.05559 0.449079,0 1.342656,-0.537063 2.732416,-1.590748 4.041718,-2.245399 0.78603,-0.393015 2.224052,-0.601475 2.919018,-1.122699 0.13389,-0.100418 0.106197,-0.330737 0.22454,-0.44908 0.05293,-0.05292 0.191068,0.06695 0.22454,0 0.279401,-0.558801 0,-2.343894 0,-2.919019 0,-1.796319 0,-3.592638 0,-5.388957"
       id="path43" />
  </g>
</svg>
